<svg width="149" height="140" viewBox="0 0 149 140" fill="none" xmlns="http://www.w3.org/2000/svg">
<g filter="url(#filter0_d_23_776)">
<rect x="6.33523" y="22.6199" width="77" height="108" rx="7" transform="rotate(-13.3129 6.33523 22.6199)" fill="url(#paint0_linear_23_776)" stroke="url(#paint1_linear_23_776)" stroke-width="2"/>
<g filter="url(#filter1_i_23_776)">
<path d="M16.5243 23.892L18.4198 27.5045L22.4957 27.6791L18.8831 29.5746L18.7085 33.6505L16.813 30.0379L12.7371 29.8633L16.3497 27.9678L16.5243 23.892Z" fill="white"/>
</g>
<g filter="url(#filter2_i_23_776)">
<path d="M94.1918 98.2747L96.0873 101.887L100.163 102.062L96.5506 103.957L96.376 108.033L94.4805 104.421L90.4046 104.246L94.0172 102.351L94.1918 98.2747Z" fill="#F5F5F5"/>
</g>
<path d="M27.1377 26.7584L65.1633 17.8673" stroke="url(#paint2_linear_23_776)" stroke-width="0.5" stroke-linecap="round"/>
<path d="M40.5605 116.557L85.3118 105.725" stroke="url(#paint3_linear_23_776)" stroke-width="0.5" stroke-linecap="round"/>
<path d="M60.8639 43.3794C73.0737 45.6889 81.0215 57.872 78.6157 70.5912C76.2099 83.3105 64.3615 91.7491 52.1516 89.4396C39.9417 87.1301 31.9939 74.9471 34.3997 62.2278C36.8056 49.5086 48.654 41.0699 60.8639 43.3794ZM59.8959 48.4967C50.3024 46.6821 41.0082 53.2311 39.137 63.1239C37.266 73.0165 43.5263 82.5068 53.1197 84.3214C62.7131 86.1358 72.0071 79.5877 73.8784 69.6951C75.7496 59.8025 69.4893 50.3113 59.8959 48.4967Z" fill="url(#paint4_linear_23_776)"/>
<path d="M62.3201 65.5286L65.6016 73.2819L57.2468 72.2472L49.4942 75.5294L50.5281 67.1739L47.2468 59.4219L55.6015 60.4553L63.3542 57.1745L62.3201 65.5286ZM50.6712 67.1546L57.2269 72.105L62.1772 65.5492L55.6215 60.5989L50.6712 67.1546Z" fill="#8800FF"/>
<path d="M72.009 16.73L73.3213 17.0553C72.703 18.3787 71.4305 18.9475 70.0725 18.7871C68.8554 18.5178 68.3594 17.7779 68.1618 16.894L68.1289 16.7467C68.0801 16.4286 67.9075 15.0174 69.3663 14.1499C70.1896 13.6603 71.3802 13.7465 71.9572 14.0558C72.4026 14.2945 72.6827 14.5685 72.6827 14.5685L71.6961 15.3304C70.6977 14.6524 69.1246 15.2866 69.6114 16.7246C70.0158 17.7943 71.513 17.8698 72.009 16.73Z" fill="url(#paint5_linear_23_776)"/>
<path d="M72.6827 14.5685C72.7614 14.5509 71.4254 13.3802 70.0581 13.9179C70.5215 14.0896 70.1899 14.5071 71.105 14.5346C71.5937 14.5026 72.0567 15.0952 72.1189 15.0039C72.1812 14.9127 72.604 14.5861 72.6827 14.5685Z" fill="url(#paint6_linear_23_776)"/>
<path d="M69.6114 16.7246C69.6937 17.0929 68.7035 17.469 69.4484 17.8438C70.1933 18.2187 69.0915 18.465 69.8034 18.6926C70.5154 18.9201 71.4534 18.8003 71.8991 18.456C71.8991 18.456 72.2335 18.2266 71.2 17.9163C69.8712 17.5173 69.6114 16.7246 69.6114 16.7246Z" fill="#D9D9D9"/>
<path d="M69.6114 16.7246C69.6937 17.0929 68.7035 17.469 69.4484 17.8438C70.1933 18.2187 69.0915 18.465 69.8034 18.6926C70.5154 18.9201 71.4534 18.8003 71.8991 18.456C71.8991 18.456 72.2335 18.2266 71.2 17.9163C69.8712 17.5173 69.6114 16.7246 69.6114 16.7246Z" fill="url(#paint7_linear_23_776)"/>
<path d="M72.009 16.73L72.0451 16.5844L71.9221 16.5539L71.8715 16.6701L72.009 16.73ZM73.3213 17.0553L73.4572 17.1188L73.5344 16.9536L73.3574 16.9097L73.3213 17.0553ZM70.0725 18.7871L70.0401 18.9335L70.0474 18.9351L70.0549 18.936L70.0725 18.7871ZM68.1289 16.7467L67.9803 16.7695L67.9825 16.7794L68.1289 16.7467ZM69.3663 14.1499L69.4429 14.2788V14.2788L69.3663 14.1499ZM71.9572 14.0558L71.8863 14.188L71.9572 14.0558ZM71.6961 15.3304L71.6118 15.4545L71.7018 15.5156L71.7878 15.4491L71.6961 15.3304ZM70.0581 13.9179L70.0032 13.7783L69.6377 13.922L70.006 14.0585L70.0581 13.9179ZM71.105 14.5346L71.1005 14.6845L71.1077 14.6847L71.1148 14.6842L71.105 14.5346ZM71.8991 18.456L71.8141 18.3322L71.8074 18.3373L71.8991 18.456ZM71.2 17.9163L71.1569 18.0599L71.2 17.9163ZM72.009 16.73L71.9729 16.8755L73.2852 17.2009L73.3213 17.0553L73.3574 16.9097L72.0451 16.5844L72.009 16.73ZM73.3213 17.0553L73.1854 16.9918C72.5983 18.2485 71.3933 18.792 70.0901 18.6381L70.0725 18.7871L70.0549 18.936C71.4678 19.1029 72.8078 18.5089 73.4572 17.1188L73.3213 17.0553ZM70.0725 18.7871L70.1049 18.6406C69.5217 18.5116 69.1225 18.2728 68.8455 17.9698C68.5675 17.6656 68.4032 17.2863 68.3082 16.8613L68.1618 16.894L68.0154 16.9267C68.118 17.3856 68.3005 17.8182 68.6241 18.1722C68.9488 18.5275 69.4061 18.7933 70.0401 18.9335L70.0725 18.7871ZM68.1618 16.894L68.3082 16.8613L68.2753 16.714L68.1289 16.7467L67.9825 16.7794L68.0154 16.9267L68.1618 16.894ZM68.1289 16.7467L68.2771 16.724C68.2302 16.4175 68.0691 15.0958 69.4429 14.2788L69.3663 14.1499L69.2896 14.0209C67.7459 14.9389 67.9301 16.4397 67.9806 16.7694L68.1289 16.7467ZM69.3663 14.1499L69.4429 14.2788C69.8253 14.0514 70.3004 13.9542 70.7544 13.9532C71.2099 13.9523 71.6255 14.0482 71.8863 14.188L71.9572 14.0558L72.0281 13.9236C71.7118 13.7541 71.2437 13.6522 70.7538 13.6532C70.2624 13.6543 69.7305 13.7587 69.2896 14.0209L69.3663 14.1499ZM71.9572 14.0558L71.8863 14.188C72.0998 14.3024 72.2739 14.4255 72.3945 14.5198C72.4547 14.5669 72.5013 14.6066 72.5325 14.6343C72.5481 14.6481 72.5598 14.6588 72.5674 14.6659C72.5713 14.6695 72.574 14.6721 72.5758 14.6738C72.5766 14.6746 72.5772 14.6752 72.5776 14.6755C72.5778 14.6757 72.5779 14.6758 72.5779 14.6758C72.5779 14.6758 72.5779 14.6758 72.5779 14.6758C72.5779 14.6758 72.5779 14.6758 72.5779 14.6758C72.5778 14.6758 72.5778 14.6758 72.5778 14.6757C72.5778 14.6757 72.5778 14.6757 72.6827 14.5685C72.7876 14.4612 72.7875 14.4612 72.7875 14.4612C72.7875 14.4612 72.7875 14.4612 72.7875 14.4612C72.7874 14.4611 72.7874 14.4611 72.7874 14.4611C72.7873 14.461 72.7872 14.4609 72.7871 14.4608C72.7868 14.4605 72.7865 14.4602 72.7861 14.4599C72.7854 14.4591 72.7844 14.4582 72.7831 14.4569C72.7805 14.4544 72.7768 14.451 72.7721 14.4466C72.7627 14.4378 72.749 14.4253 72.7314 14.4096C72.6961 14.3784 72.6449 14.3348 72.5794 14.2835C72.4486 14.1812 72.26 14.0479 72.0281 13.9236L71.9572 14.0558ZM72.6827 14.5685L72.591 14.4498L71.6044 15.2117L71.6961 15.3304L71.7878 15.4491L72.7744 14.6872L72.6827 14.5685ZM71.6961 15.3304L71.7804 15.2063C71.2349 14.8359 70.5313 14.8215 70.024 15.1028C69.7683 15.2447 69.5597 15.4635 69.451 15.7519C69.3422 16.0407 69.3384 16.3861 69.4693 16.7727L69.6114 16.7246L69.7535 16.6765C69.6409 16.3441 69.6513 16.071 69.7317 15.8577C69.8123 15.6439 69.9681 15.4769 70.1695 15.3652C70.5767 15.1394 71.1589 15.1469 71.6118 15.4545L71.6961 15.3304ZM69.6114 16.7246L69.4711 16.7777C69.9238 17.9751 71.5976 18.0513 72.1466 16.7898L72.009 16.73L71.8715 16.6701C71.4284 17.6883 70.1078 17.6135 69.7517 16.6716L69.6114 16.7246ZM72.6827 14.5685L72.7155 14.7149C72.7445 14.7083 72.7837 14.6903 72.8107 14.6492C72.8362 14.6105 72.8374 14.5714 72.8353 14.5492C72.8315 14.5103 72.8139 14.4818 72.8089 14.4737C72.7943 14.45 72.774 14.4273 72.7562 14.409C72.7178 14.3693 72.6606 14.3193 72.5893 14.2647C72.4457 14.1547 72.2338 14.0175 71.9753 13.8986C71.4604 13.6619 70.7395 13.4887 70.0032 13.7783L70.0581 13.9179L70.113 14.0575C70.744 13.8093 71.3747 13.9526 71.85 14.1712C72.0865 14.28 72.2793 14.4052 72.4068 14.5028C72.471 14.552 72.516 14.5922 72.5409 14.6179C72.5548 14.6322 72.5565 14.636 72.5535 14.631C72.5523 14.6291 72.5495 14.6244 72.5466 14.6175C72.544 14.6115 72.5385 14.5974 72.5366 14.5779C72.5348 14.5583 72.5356 14.5215 72.56 14.4844C72.5859 14.445 72.6233 14.4281 72.6499 14.4221L72.6827 14.5685ZM72.1189 15.0039L72.2429 15.0884C72.2425 15.089 72.2477 15.082 72.2639 15.0657C72.2786 15.051 72.298 15.033 72.3214 15.0124C72.368 14.9713 72.4266 14.9235 72.4863 14.8773C72.5462 14.8311 72.6055 14.7879 72.6535 14.7559C72.6776 14.7397 72.6973 14.7275 72.7119 14.7193C72.7313 14.7084 72.7294 14.7117 72.7155 14.7149L72.6827 14.5685L72.6499 14.4221C72.6163 14.4296 72.5839 14.4471 72.5649 14.4577C72.5411 14.4711 72.5144 14.488 72.4868 14.5064C72.4315 14.5434 72.3664 14.5909 72.3029 14.6399C72.2394 14.689 72.1757 14.741 72.123 14.7873C72.0755 14.8292 72.0229 14.8786 71.995 14.9194L72.1189 15.0039ZM72.1189 15.0039L71.995 14.9194C72.018 14.8858 72.054 14.8674 72.088 14.8641C72.102 14.8627 72.1129 14.8641 72.1192 14.8653C72.1255 14.8665 72.1295 14.8679 72.1306 14.8684C72.1324 14.869 72.1296 14.8681 72.1211 14.863C72.1131 14.8582 72.1027 14.8514 72.0895 14.8421C72.0626 14.8231 72.0306 14.7985 71.9909 14.768C71.9521 14.7384 71.9077 14.7044 71.8595 14.6697C71.6741 14.5364 71.3974 14.3651 71.0952 14.3849L71.105 14.5346L71.1148 14.6842C71.3013 14.6721 71.5005 14.7811 71.6843 14.9133C71.7284 14.945 71.7696 14.9764 71.8084 15.0062C71.8462 15.0351 71.8836 15.0639 71.9165 15.0871C71.9467 15.1085 71.9854 15.1342 72.0245 15.1489C72.0439 15.1563 72.0774 15.1666 72.1173 15.1626C72.1652 15.1579 72.2121 15.1335 72.2429 15.0884L72.1189 15.0039ZM71.105 14.5346L71.1095 14.3846C70.8905 14.3781 70.7609 14.3483 70.6804 14.3133C70.6055 14.2806 70.5673 14.2409 70.5355 14.195C70.4722 14.1035 70.4004 13.8848 70.1103 13.7772L70.0581 13.9179L70.006 14.0585C70.1792 14.1227 70.1732 14.1986 70.2888 14.3657C70.3465 14.449 70.4258 14.5296 70.5606 14.5883C70.6898 14.6446 70.862 14.6773 71.1005 14.6845L71.105 14.5346ZM69.6114 16.7246L69.465 16.7573C69.4699 16.7791 69.4629 16.8227 69.3959 16.9122C69.3651 16.9533 69.3283 16.9956 69.2869 17.0428C69.2469 17.0883 69.2022 17.1389 69.1627 17.1902C69.0891 17.2856 69.0001 17.4236 69.0227 17.5835C69.0465 17.7523 69.1817 17.8775 69.381 17.9778L69.4484 17.8438L69.5159 17.7099C69.3427 17.6227 69.3224 17.5604 69.3197 17.5417C69.3159 17.5142 69.3297 17.4649 69.4002 17.3734C69.4328 17.3312 69.4705 17.2884 69.5123 17.2407C69.5527 17.1947 69.5971 17.1439 69.6359 17.0921C69.7081 16.9958 69.7941 16.8543 69.7578 16.6919L69.6114 16.7246ZM69.4484 17.8438L69.381 17.9778C69.5581 18.067 69.5693 18.1225 69.5699 18.1261C69.5718 18.138 69.5666 18.1624 69.5144 18.2389C69.4943 18.2683 69.4636 18.3114 69.4416 18.3537C69.4193 18.3965 69.3933 18.4614 69.4038 18.5373C69.4151 18.6191 69.4638 18.6813 69.525 18.7267C69.5836 18.7701 69.6621 18.8049 69.7578 18.8354L69.8034 18.6926L69.8491 18.5497C69.7668 18.5234 69.724 18.5007 69.7036 18.4856C69.686 18.4725 69.6981 18.4752 69.7009 18.496C69.703 18.511 69.6966 18.5135 69.7077 18.4921C69.7191 18.4701 69.7356 18.447 69.7622 18.408C69.8033 18.3477 69.8894 18.2259 69.8662 18.0791C69.8416 17.924 69.7111 17.8081 69.5159 17.7099L69.4484 17.8438ZM69.8034 18.6926L69.7578 18.8354C70.1374 18.9568 70.5719 18.9843 70.9686 18.9377C71.3628 18.8914 71.7385 18.7696 71.9908 18.5748L71.8991 18.456L71.8074 18.3373C71.614 18.4867 71.2979 18.5969 70.9336 18.6397C70.572 18.6822 70.1814 18.6559 69.8491 18.5497L69.8034 18.6926ZM71.8991 18.456C71.984 18.5797 71.9841 18.5796 71.9842 18.5796C71.9843 18.5795 71.9844 18.5794 71.9845 18.5794C71.9847 18.5792 71.9849 18.5791 71.9851 18.579C71.9854 18.5787 71.9858 18.5784 71.9863 18.5781C71.9871 18.5775 71.9881 18.5768 71.9891 18.5761C71.9912 18.5746 71.9936 18.5727 71.9963 18.5706C72.0017 18.5663 72.0083 18.5606 72.0157 18.5535C72.03 18.5396 72.0488 18.5186 72.0652 18.4903C72.1009 18.4283 72.1198 18.3378 72.0726 18.2383C72.0307 18.1498 71.9447 18.0728 71.8197 18.0013C71.692 17.9283 71.5072 17.8519 71.2431 17.7726L71.2 17.9163L71.1569 18.0599C71.4095 18.1358 71.5705 18.2044 71.6708 18.2618C71.7737 18.3206 71.7979 18.3592 71.8016 18.3668C71.8024 18.3686 71.8002 18.3643 71.8008 18.3558C71.8014 18.3482 71.8039 18.3428 71.8053 18.3404C71.8064 18.3384 71.8072 18.3378 71.8073 18.3377C71.8075 18.3375 71.808 18.337 71.8089 18.3362C71.8094 18.3358 71.8101 18.3353 71.811 18.3347C71.8114 18.3344 71.8119 18.334 71.8124 18.3336C71.8127 18.3334 71.813 18.3332 71.8133 18.333C71.8134 18.3329 71.8136 18.3328 71.8138 18.3327C71.8138 18.3326 71.814 18.3326 71.814 18.3325C71.8141 18.3325 71.8142 18.3324 71.8991 18.456ZM71.2 17.9163L71.2431 17.7726C70.6036 17.5806 70.2296 17.2967 70.0172 17.0686C69.9105 16.9541 69.8434 16.8524 69.8036 16.7814C69.7837 16.7459 69.7706 16.718 69.7628 16.7C69.7589 16.691 69.7564 16.6844 69.755 16.6806C69.7542 16.6788 69.7538 16.6776 69.7537 16.6771C69.7536 16.6769 69.7535 16.6768 69.7536 16.6769C69.7536 16.677 69.7537 16.6771 69.7537 16.6773C69.7537 16.6773 69.7538 16.6774 69.7538 16.6775C69.7538 16.6776 69.7538 16.6777 69.7539 16.6777C69.7539 16.6778 69.7539 16.6779 69.6114 16.7246C69.4688 16.7713 69.4689 16.7714 69.4689 16.7715C69.4689 16.7716 69.469 16.7717 69.469 16.7718C69.469 16.7719 69.4691 16.7721 69.4691 16.7722C69.4693 16.7726 69.4694 16.773 69.4695 16.7734C69.4698 16.7743 69.4702 16.7754 69.4707 16.7767C69.4716 16.7793 69.4728 16.7826 69.4743 16.7866C69.4773 16.7946 69.4816 16.8055 69.4874 16.8189C69.4991 16.8458 69.5167 16.883 69.5419 16.928C69.5923 17.0181 69.6733 17.1395 69.7976 17.2731C70.0473 17.5411 70.4676 17.853 71.1569 18.0599L71.2 17.9163Z" fill="black"/>
<path d="M74.4857 13.6977L73.3388 13.8219L73.188 12.4292L77.6119 11.9502L77.7626 13.3429L76.6157 13.4671C76.4347 13.4867 76.3039 13.6493 76.3235 13.8303L76.7138 17.4349L75.2392 17.5946L74.8489 13.9903C74.8293 13.8093 74.6667 13.6781 74.4857 13.6977Z" fill="url(#paint8_linear_23_776)"/>
<path d="M74.974 12.843C74.8513 12.9785 74.8622 13.188 74.9984 13.31L75.3044 13.5839C75.4503 13.7145 75.6771 13.6899 75.7916 13.5312L76.0319 13.1981C76.1389 13.0498 76.1047 12.8428 75.9558 12.7367L75.6563 12.5235C75.5202 12.4266 75.3331 12.4468 75.2209 12.5706L74.974 12.843Z" fill="url(#paint9_linear_23_776)"/>
<path d="M74.4857 13.6977L73.3388 13.8219L73.188 12.4292L77.6119 11.9502L77.7626 13.3429L76.6157 13.4671C76.4347 13.4867 76.3039 13.6493 76.3235 13.8303L76.7138 17.4349L75.2392 17.5946L74.8489 13.9903C74.8293 13.8093 74.6667 13.6781 74.4857 13.6977Z" stroke="black" stroke-width="0.2"/>
<path d="M74.974 12.843C74.8513 12.9785 74.8622 13.188 74.9984 13.31L75.3044 13.5839C75.4503 13.7145 75.6771 13.6899 75.7916 13.5312L76.0319 13.1981C76.1389 13.0498 76.1047 12.8428 75.9558 12.7367L75.6563 12.5235C75.5202 12.4266 75.3331 12.4468 75.2209 12.5706L74.974 12.843Z" stroke="black" stroke-width="0.2"/>
<rect x="74.315" y="3.07556" width="77" height="108" rx="7" transform="rotate(22.1611 74.315 3.07556)" fill="url(#paint10_linear_23_776)" stroke="url(#paint11_linear_23_776)" stroke-width="2"/>
<g filter="url(#filter3_i_23_776)">
<path d="M81.8749 10.0246L81.3221 14.0666L84.5401 16.5742L80.4981 16.0213L77.9905 19.2393L78.5434 15.1973L75.3254 12.6898L79.3674 13.2426L81.8749 10.0246Z" fill="white"/>
</g>
<g filter="url(#filter4_i_23_776)">
<path d="M101.958 115.673L101.406 119.715L104.624 122.223L100.582 121.67L98.074 124.888L98.6269 120.846L95.4089 118.338L99.4509 118.891L101.958 115.673Z" fill="#F5F5F5"/>
</g>
<path d="M88.8545 18.5181L124.982 33.3449" stroke="url(#paint12_linear_23_776)" stroke-width="0.5" stroke-linecap="round"/>
<path d="M47.6724 99.438L90.4029 116.587" stroke="url(#paint13_linear_23_776)" stroke-width="0.5" stroke-linecap="round"/>
<path d="M106.675 51.6264C115.278 60.593 114.68 75.127 105.339 84.0892C95.9988 93.0513 81.4525 93.0475 72.8493 84.0809C64.2461 75.1143 64.8438 60.5803 74.1845 51.6182C83.5252 42.6562 98.0715 42.6598 106.675 51.6264ZM102.917 55.2321C96.157 48.1869 84.7874 48.1266 77.5224 55.0971C70.2576 62.0677 69.8484 73.4294 76.608 80.4746C83.3676 87.5196 94.7366 87.5805 102.002 80.6102C109.266 73.6397 109.676 62.2773 102.917 55.2321Z" fill="url(#paint14_linear_23_776)"/>
<path d="M95.0065 70.5094L93.1794 78.7279L86.9759 73.0367L78.7576 71.2105L84.4486 65.006L86.275 56.7887L92.4792 62.4787L100.697 64.3061L95.0065 70.5094ZM84.5762 65.0733L87.0423 72.9093L94.8782 70.4433L92.4122 62.6073L84.5762 65.0733Z" fill="#8800FF"/>
<path d="M131.217 36.3915L132.097 37.418C130.825 38.1369 129.459 37.8617 128.446 36.9429C127.611 36.0173 127.636 35.1269 127.988 34.2924L128.047 34.1533C128.192 33.866 128.87 32.6165 130.562 32.7566C131.516 32.8357 132.436 33.5968 132.726 34.1836C132.951 34.6365 133.02 35.0221 133.02 35.0221L131.774 35.0701C131.354 33.9385 129.705 33.5421 129.267 34.9957C128.976 36.1015 130.151 37.0319 131.217 36.3915Z" fill="url(#paint15_linear_23_776)"/>
<path d="M133.02 35.0221C133.094 35.0535 132.685 33.3247 131.26 32.9692C131.538 33.3779 131.025 33.5255 131.755 34.0789C132.171 34.3365 132.204 35.0878 132.308 35.0496C132.412 35.0114 132.945 34.9908 133.02 35.0221Z" fill="url(#paint16_linear_23_776)"/>
<path d="M129.267 34.9957C129.121 35.3434 128.096 35.075 128.485 35.8126C128.874 36.5501 127.834 36.1113 128.282 36.7098C128.729 37.3083 129.563 37.755 130.125 37.7334C130.125 37.7334 130.531 37.7406 129.869 36.8881C129.019 35.792 129.267 34.9957 129.267 34.9957Z" fill="#D9D9D9"/>
<path d="M129.267 34.9957C129.121 35.3434 128.096 35.075 128.485 35.8126C128.874 36.5501 127.834 36.1113 128.282 36.7098C128.729 37.3083 129.563 37.755 130.125 37.7334C130.125 37.7334 130.531 37.7406 129.869 36.8881C129.019 35.792 129.267 34.9957 129.267 34.9957Z" fill="url(#paint17_linear_23_776)"/>
<path d="M131.217 36.3915L131.331 36.2938L131.248 36.1976L131.139 36.2629L131.217 36.3915ZM132.097 37.418L132.17 37.5485L132.329 37.4588L132.21 37.3203L132.097 37.418ZM128.446 36.9429L128.334 37.0434L128.339 37.0489L128.345 37.054L128.446 36.9429ZM128.047 34.1533L127.913 34.0856L127.909 34.095L128.047 34.1533ZM130.562 32.7566L130.549 32.9061V32.9061L130.562 32.7566ZM132.726 34.1836L132.592 34.2502L132.726 34.1836ZM131.774 35.0701L131.633 35.1223L131.671 35.2242L131.78 35.22L131.774 35.0701ZM131.26 32.9692L131.296 32.8236L130.915 32.7286L131.136 33.0535L131.26 32.9692ZM131.755 34.0789L131.664 34.1984L131.67 34.2028L131.676 34.2065L131.755 34.0789ZM130.125 37.7334L130.128 37.5832L130.12 37.5835L130.125 37.7334ZM129.869 36.8881L129.751 36.98L129.869 36.8881ZM131.217 36.3915L131.103 36.4891L131.983 37.5156L132.097 37.418L132.21 37.3203L131.331 36.2938L131.217 36.3915ZM132.097 37.418L132.023 37.2874C130.815 37.9701 129.519 37.7134 128.547 36.8318L128.446 36.9429L128.345 37.054C129.399 38.0099 130.835 38.3038 132.17 37.5485L132.097 37.418ZM128.446 36.9429L128.557 36.8424C128.157 36.3989 127.971 35.9728 127.921 35.5653C127.871 35.1562 127.957 34.752 128.127 34.3507L127.988 34.2924L127.85 34.2341C127.667 34.6674 127.565 35.1255 127.623 35.6016C127.681 36.0794 127.9 36.5612 128.334 37.0434L128.446 36.9429ZM127.988 34.2924L128.127 34.3507L128.185 34.2116L128.047 34.1533L127.909 34.095L127.85 34.2341L127.988 34.2924ZM128.047 34.1533L128.181 34.2209C128.321 33.944 128.956 32.7741 130.549 32.9061L130.562 32.7566L130.574 32.6071C128.784 32.4589 128.063 33.788 127.913 34.0858L128.047 34.1533ZM130.562 32.7566L130.549 32.9061C130.993 32.9428 131.436 33.1394 131.806 33.4021C132.178 33.6656 132.461 33.985 132.592 34.2502L132.726 34.1836L132.861 34.1171C132.702 33.7955 132.38 33.4409 131.98 33.1574C131.579 32.873 131.085 32.6495 130.574 32.6071L130.562 32.7566ZM132.726 34.1836L132.592 34.2502C132.699 34.4672 132.77 34.6685 132.813 34.8153C132.835 34.8886 132.85 34.948 132.859 34.9886C132.864 35.0088 132.867 35.0244 132.869 35.0346C132.87 35.0397 132.871 35.0435 132.872 35.0459C132.872 35.047 132.872 35.0479 132.872 35.0483C132.872 35.0486 132.872 35.0487 132.872 35.0487C132.872 35.0488 132.872 35.0488 132.872 35.0487C132.872 35.0487 132.872 35.0487 132.872 35.0487C132.872 35.0487 132.872 35.0487 132.872 35.0487C132.872 35.0486 132.872 35.0486 133.02 35.0221C133.167 34.9957 133.167 34.9957 133.167 34.9956C133.167 34.9956 133.167 34.9956 133.167 34.9956C133.167 34.9955 133.167 34.9955 133.167 34.9954C133.167 34.9953 133.167 34.9952 133.167 34.995C133.167 34.9947 133.167 34.9942 133.167 34.9937C133.167 34.9927 133.167 34.9913 133.166 34.9895C133.166 34.986 133.165 34.9811 133.163 34.9748C133.161 34.9621 133.157 34.944 133.152 34.9211C133.141 34.8752 133.125 34.8099 133.101 34.7301C133.054 34.5709 132.978 34.3529 132.861 34.1171L132.726 34.1836ZM133.02 35.0221L133.014 34.8723L131.768 34.9202L131.774 35.0701L131.78 35.22L133.025 35.172L133.02 35.0221ZM131.774 35.0701L131.915 35.018C131.685 34.3997 131.121 33.9797 130.544 33.9144C130.254 33.8815 129.957 33.9386 129.701 34.1104C129.445 34.2824 129.241 34.5616 129.124 34.9524L129.267 34.9957L129.411 35.039C129.512 34.703 129.679 34.4866 129.868 34.3595C130.058 34.2321 130.282 34.1866 130.511 34.2125C130.973 34.2649 131.443 34.6089 131.633 35.1223L131.774 35.0701ZM129.267 34.9957L129.122 34.9574C128.796 36.1954 130.115 37.2288 131.294 36.52L131.217 36.3915L131.139 36.2629C130.188 36.835 129.156 36.0076 129.412 35.0339L129.267 34.9957ZM133.02 35.0221L132.961 35.1604C132.989 35.1719 133.031 35.18 133.077 35.1622C133.12 35.1454 133.144 35.1144 133.155 35.095C133.175 35.0611 133.177 35.0277 133.177 35.0182C133.179 34.9904 133.176 34.9601 133.172 34.9349C133.164 34.8803 133.146 34.8065 133.12 34.7205C133.067 34.5476 132.974 34.313 132.832 34.0661C132.55 33.5745 132.064 33.0151 131.296 32.8236L131.26 32.9692L131.224 33.1147C131.881 33.2788 132.312 33.7615 132.572 34.2154C132.702 34.4412 132.786 34.6551 132.833 34.8086C132.857 34.8859 132.87 34.9447 132.876 34.9801C132.879 34.9999 132.878 35.0039 132.878 34.9981C132.878 34.9959 132.879 34.9904 132.88 34.9831C132.882 34.9767 132.885 34.962 132.895 34.9451C132.905 34.928 132.927 34.8986 132.969 34.8825C133.013 34.8654 133.053 34.8733 133.078 34.8839L133.02 35.0221ZM132.308 35.0496L132.36 35.1904C132.359 35.1906 132.367 35.1879 132.39 35.1841C132.411 35.1806 132.437 35.1772 132.468 35.174C132.53 35.1676 132.605 35.1626 132.681 35.1597C132.756 35.1568 132.829 35.156 132.887 35.1578C132.916 35.1587 132.939 35.1601 132.956 35.1619C132.978 35.1643 132.975 35.1659 132.961 35.1604L133.02 35.0221L133.078 34.8839C133.046 34.8705 133.01 34.866 132.988 34.8636C132.961 34.8607 132.929 34.8589 132.896 34.8579C132.83 34.8559 132.749 34.8568 132.669 34.8599C132.589 34.863 132.507 34.8684 132.437 34.8756C132.374 34.8821 132.302 34.8918 132.256 34.9089L132.308 35.0496ZM132.308 35.0496L132.256 34.9089C132.294 34.8948 132.334 34.9008 132.364 34.9178C132.376 34.9248 132.384 34.9322 132.389 34.9368C132.393 34.9415 132.395 34.945 132.396 34.946C132.397 34.9475 132.395 34.9452 132.391 34.9361C132.388 34.9276 132.383 34.916 132.378 34.9007C132.367 34.8696 132.355 34.831 132.34 34.7832C132.326 34.7365 132.31 34.6831 132.291 34.6268C132.217 34.4107 132.091 34.1106 131.833 33.9514L131.755 34.0789L131.676 34.2065C131.835 34.3049 131.934 34.5092 132.007 34.7236C132.024 34.775 132.039 34.8245 132.054 34.8712C132.068 34.9167 132.081 34.9619 132.095 34.9999C132.107 35.0348 132.124 35.0782 132.147 35.1129C132.158 35.1301 132.18 35.1579 132.214 35.1779C132.256 35.2019 132.309 35.2092 132.36 35.1904L132.308 35.0496ZM131.755 34.0789L131.845 33.9594C131.671 33.827 131.582 33.7276 131.537 33.6523C131.495 33.5823 131.487 33.5277 131.488 33.4719C131.489 33.3607 131.558 33.1409 131.384 32.8849L131.26 32.9692L131.136 33.0535C131.24 33.2063 131.191 33.2646 131.188 33.4677C131.186 33.5691 131.204 33.6807 131.28 33.8068C131.353 33.9276 131.474 34.0542 131.664 34.1984L131.755 34.0789ZM129.267 34.9957L129.129 34.9374C129.12 34.9579 129.089 34.9894 128.983 35.0234C128.934 35.039 128.879 35.0521 128.818 35.0665C128.759 35.0804 128.694 35.0956 128.632 35.1144C128.516 35.1494 128.364 35.2102 128.289 35.3535C128.211 35.5048 128.248 35.6852 128.352 35.8826L128.485 35.8126L128.618 35.7426C128.527 35.5712 128.547 35.5086 128.556 35.4918C128.568 35.4672 128.608 35.435 128.719 35.4015C128.77 35.386 128.825 35.373 128.887 35.3585C128.947 35.3444 129.012 35.3289 129.074 35.3092C129.189 35.2727 129.341 35.2073 129.405 35.054L129.267 34.9957ZM128.485 35.8126L128.352 35.8826C128.445 36.058 128.422 36.1097 128.42 36.1129C128.415 36.1237 128.396 36.1405 128.309 36.1726C128.276 36.1849 128.226 36.2021 128.183 36.2238C128.14 36.2458 128.082 36.2835 128.046 36.3514C128.008 36.4246 128.011 36.5035 128.035 36.576C128.058 36.6454 128.101 36.7193 128.161 36.7997L128.282 36.7098L128.402 36.6199C128.35 36.5507 128.328 36.5074 128.32 36.4833C128.314 36.4624 128.322 36.4716 128.312 36.4903C128.305 36.5037 128.298 36.5019 128.32 36.491C128.342 36.4797 128.369 36.4704 128.413 36.4541C128.482 36.4288 128.622 36.3797 128.689 36.2466C128.759 36.106 128.72 35.936 128.618 35.7426L128.485 35.8126ZM128.282 36.7098L128.161 36.7997C128.4 37.1188 128.738 37.3933 129.088 37.5856C129.436 37.7766 129.813 37.8955 130.131 37.8833L130.125 37.7334L130.12 37.5835C129.876 37.5929 129.554 37.4992 129.233 37.3227C128.913 37.1474 128.611 36.8993 128.402 36.6199L128.282 36.7098ZM130.125 37.7334C130.123 37.8833 130.123 37.8833 130.123 37.8833C130.123 37.8833 130.123 37.8834 130.123 37.8834C130.124 37.8834 130.124 37.8834 130.124 37.8834C130.125 37.8834 130.125 37.8834 130.126 37.8834C130.127 37.8834 130.128 37.8834 130.129 37.8833C130.132 37.8833 130.135 37.8832 130.138 37.883C130.145 37.8826 130.154 37.8819 130.164 37.8804C130.184 37.8774 130.211 37.8712 130.241 37.8576C130.306 37.8279 130.374 37.7651 130.393 37.6567C130.41 37.5603 130.385 37.4477 130.325 37.3169C130.263 37.1834 130.157 37.014 129.988 36.7961L129.869 36.8881L129.751 36.98C129.913 37.1884 130.004 37.3378 130.052 37.4427C130.102 37.5503 130.099 37.5958 130.098 37.6041C130.097 37.606 130.098 37.6012 130.104 37.5947C130.108 37.5888 130.114 37.5859 130.116 37.5847C130.118 37.5838 130.119 37.5837 130.119 37.5837C130.12 37.5836 130.12 37.5835 130.122 37.5835C130.122 37.5834 130.123 37.5834 130.124 37.5834C130.125 37.5834 130.125 37.5834 130.126 37.5834C130.126 37.5834 130.127 37.5834 130.127 37.5834C130.127 37.5834 130.127 37.5834 130.128 37.5834C130.128 37.5834 130.128 37.5834 130.128 37.5834C130.128 37.5834 130.128 37.5834 130.125 37.7334ZM129.869 36.8881L129.988 36.7961C129.579 36.2686 129.439 35.8204 129.398 35.5113C129.378 35.3561 129.382 35.2344 129.391 35.1535C129.395 35.113 129.401 35.0827 129.405 35.0635C129.407 35.0539 129.409 35.0471 129.41 35.0432C129.41 35.0412 129.411 35.04 129.411 35.0395C129.411 35.0393 129.411 35.0392 129.411 35.0394C129.411 35.0394 129.411 35.0396 129.411 35.0397C129.411 35.0398 129.411 35.0399 129.411 35.04C129.41 35.04 129.41 35.0401 129.41 35.0402C129.41 35.0402 129.41 35.0403 129.267 34.9957C129.124 34.951 129.124 34.9511 129.124 34.9512C129.124 34.9512 129.124 34.9514 129.124 34.9514C129.124 34.9516 129.124 34.9517 129.124 34.9519C129.124 34.9523 129.123 34.9527 129.123 34.9531C129.123 34.954 129.123 34.9551 129.122 34.9564C129.122 34.959 129.121 34.9624 129.12 34.9666C129.117 34.9749 129.115 34.9862 129.112 35.0006C129.105 35.0292 129.098 35.0697 129.093 35.121C129.081 35.2236 129.077 35.3695 129.101 35.5504C129.148 35.9135 129.31 36.4115 129.751 36.98L129.869 36.8881Z" fill="black"/>
<path d="M134.994 35.3595L133.987 34.795L134.673 33.5733L138.554 35.7506L137.868 36.9722L136.862 36.4078C136.703 36.3187 136.502 36.3752 136.413 36.534L134.639 39.696L133.346 38.9702L135.12 35.8085C135.209 35.6498 135.152 35.4485 134.994 35.3595Z" fill="url(#paint18_linear_23_776)"/>
<path d="M135.887 34.9468C135.709 34.9859 135.596 35.1629 135.636 35.3412L135.726 35.7419C135.769 35.9329 135.968 36.0445 136.154 35.9817L136.543 35.8499C136.716 35.7912 136.808 35.6028 136.748 35.43L136.628 35.0826C136.574 34.9246 136.41 34.8326 136.246 34.8683L135.887 34.9468Z" fill="url(#paint19_linear_23_776)"/>
<path d="M134.994 35.3595L133.987 34.795L134.673 33.5733L138.554 35.7506L137.868 36.9722L136.862 36.4078C136.703 36.3187 136.502 36.3752 136.413 36.534L134.639 39.696L133.346 38.9702L135.12 35.8085C135.209 35.6498 135.152 35.4485 134.994 35.3595Z" stroke="black" stroke-width="0.2"/>
<path d="M135.887 34.9468C135.709 34.9859 135.596 35.1629 135.636 35.3412L135.726 35.7419C135.769 35.9329 135.968 36.0445 136.154 35.9817L136.543 35.8499C136.716 35.7912 136.808 35.6028 136.748 35.43L136.628 35.0826C136.574 34.9246 136.41 34.8326 136.246 34.8683L135.887 34.9468Z" stroke="black" stroke-width="0.2"/>
<rect x="35.2916" y="19.0474" width="77" height="108" rx="7" transform="rotate(2.7832 35.2916 19.0474)" fill="url(#paint20_linear_23_776)" stroke="url(#paint21_linear_23_776)" stroke-width="2"/>
<g filter="url(#filter5_i_23_776)">
<path d="M44.7286 23.0945L45.5482 27.0909L49.4159 28.3887L45.4194 29.2083L44.1216 33.076L43.302 29.0796L39.4343 27.7818L43.4308 26.9622L44.7286 23.0945Z" fill="white"/>
</g>
<g filter="url(#filter6_i_23_776)">
<path d="M98.7286 116.094L99.5482 120.091L103.416 121.389L99.4194 122.208L98.1216 126.076L97.302 122.08L93.4343 120.782L97.4308 119.962L98.7286 116.094Z" fill="#F5F5F5"/>
</g>
<path d="M54.1309 28.791L93.1309 30.791" stroke="url(#paint22_linear_23_776)" stroke-width="0.5" stroke-linecap="round"/>
<path d="M42.1309 118.791L88.1309 120.791" stroke="url(#paint23_linear_23_776)" stroke-width="0.5" stroke-linecap="round"/>
<path d="M81.9272 54.111C93.0181 59.7152 97.2765 73.6242 91.4387 85.1778C85.6008 96.7314 71.8773 101.554 60.7863 95.9502C49.6954 90.3461 45.4369 76.4371 51.2748 64.8834C57.1128 53.3299 70.8363 48.5069 81.9272 54.111ZM79.5784 58.7594C70.8641 54.3561 60.1186 58.0716 55.5779 67.0578C51.0375 76.0439 54.4213 86.8978 63.1355 91.301C71.8497 95.7041 82.5949 91.9894 87.1355 83.0035C91.6761 74.0174 88.2926 63.1627 79.5784 58.7594Z" fill="url(#paint24_linear_23_776)"/>
<path d="M77.1852 75.7957L78.1885 84.1549L70.4481 80.8444L62.0895 81.8484L65.3994 74.1072L64.3959 65.7494L72.1366 69.0585L80.495 68.0558L77.1852 75.7957ZM65.5421 74.1283L70.4684 80.7022L77.0423 75.7759L72.116 69.202L65.5421 74.1283Z" fill="#8800FF"/>
<path d="M100.023 31.5963L101.194 32.2727C100.233 33.3728 98.8528 33.5665 97.5925 33.0358C96.4977 32.4397 96.2263 31.5913 96.2815 30.6873L96.2907 30.5366C96.3321 30.2175 96.5575 28.8137 98.1996 28.3846C99.1264 28.1425 100.246 28.5554 100.715 29.0126C101.077 29.3655 101.27 29.7063 101.27 29.7063L100.111 30.1649C99.3395 29.2366 97.6522 29.4098 97.7213 30.9264C97.8133 32.0663 99.2308 32.5539 100.023 31.5963Z" fill="url(#paint25_linear_23_776)"/>
<path d="M101.27 29.7063C101.35 29.7112 100.391 28.216 98.9287 28.3535C99.3262 28.647 98.8919 28.9562 99.7635 29.2363C100.242 29.3411 100.522 30.0388 100.608 29.9684C100.693 29.898 101.189 29.7014 101.27 29.7063Z" fill="url(#paint26_linear_23_776)"/>
<path d="M97.7213 30.9264C97.6983 31.3031 96.6426 31.3899 97.2544 31.9566C97.8661 32.5233 96.7392 32.4545 97.3602 32.8705C97.9811 33.2865 98.9156 33.4314 99.4393 33.2242C99.4393 33.2242 99.8241 33.0965 98.9172 32.5118C97.7512 31.7601 97.7213 30.9264 97.7213 30.9264Z" fill="#D9D9D9"/>
<path d="M97.7213 30.9264C97.6983 31.3031 96.6426 31.3899 97.2544 31.9566C97.8661 32.5233 96.7392 32.4545 97.3602 32.8705C97.9811 33.2865 98.9156 33.4314 99.4393 33.2242C99.4393 33.2242 99.8241 33.0965 98.9172 32.5118C97.7512 31.7601 97.7213 30.9264 97.7213 30.9264Z" fill="url(#paint27_linear_23_776)"/>
<path d="M100.023 31.5963L100.098 31.4664L99.9887 31.403L99.9079 31.5006L100.023 31.5963ZM101.194 32.2727L101.307 32.3714L101.427 32.234L101.269 32.1428L101.194 32.2727ZM97.5925 33.0358L97.5207 33.1676L97.5273 33.1712L97.5343 33.1741L97.5925 33.0358ZM96.2907 30.5366L96.1416 30.5173L96.141 30.5275L96.2907 30.5366ZM98.1996 28.3846L98.2375 28.5298V28.5298L98.1996 28.3846ZM100.715 29.0126L100.61 29.12L100.715 29.0126ZM100.111 30.1649L99.9954 30.2607L100.065 30.3443L100.166 30.3044L100.111 30.1649ZM98.9287 28.3535L98.9146 28.2042L98.5236 28.241L98.8396 28.4742L98.9287 28.3535ZM99.7635 29.2363L99.7176 29.3791L99.7244 29.3813L99.7314 29.3828L99.7635 29.2363ZM99.4393 33.2242L99.3919 33.0816L99.3841 33.0848L99.4393 33.2242ZM98.9172 32.5118L98.8359 32.6379L98.9172 32.5118ZM100.023 31.5963L99.9484 31.7262L101.119 32.4026L101.194 32.2727L101.269 32.1428L100.098 31.4664L100.023 31.5963ZM101.194 32.2727L101.081 32.174C100.169 33.2186 98.8601 33.4068 97.6507 32.8976L97.5925 33.0358L97.5343 33.1741C98.8455 33.7262 100.298 33.527 101.307 32.3714L101.194 32.2727ZM97.5925 33.0358L97.6642 32.9041C97.1397 32.6185 96.8223 32.2784 96.6402 31.9105C96.4574 31.5411 96.4047 31.1311 96.4313 30.6964L96.2815 30.6873L96.1318 30.6781C96.1032 31.1475 96.1586 31.6137 96.3713 32.0436C96.5848 32.4749 96.9505 32.8571 97.5207 33.1676L97.5925 33.0358ZM96.2815 30.6873L96.4313 30.6964L96.4405 30.5457L96.2907 30.5366L96.141 30.5275L96.1318 30.6781L96.2815 30.6873ZM96.2907 30.5366L96.4395 30.5559C96.4794 30.2483 96.691 28.9338 98.2375 28.5298L98.1996 28.3846L98.1617 28.2395C96.424 28.6935 96.1849 30.1866 96.142 30.5173L96.2907 30.5366ZM98.1996 28.3846L98.2375 28.5298C98.668 28.4173 99.1514 28.4556 99.5878 28.5806C100.026 28.7059 100.398 28.9134 100.61 29.12L100.715 29.0126L100.82 28.9052C100.563 28.6547 100.141 28.427 99.6704 28.2922C99.198 28.1569 98.658 28.1098 98.1617 28.2395L98.1996 28.3846ZM100.715 29.0126L100.61 29.12C100.784 29.2891 100.917 29.4556 101.007 29.5797C101.051 29.6416 101.085 29.6927 101.107 29.7279C101.119 29.7455 101.127 29.759 101.132 29.768C101.135 29.7725 101.137 29.7758 101.138 29.7778C101.139 29.7789 101.139 29.7796 101.139 29.78C101.139 29.7802 101.139 29.7803 101.139 29.7804C101.14 29.7804 101.14 29.7804 101.14 29.7804C101.139 29.7804 101.139 29.7804 101.139 29.7803C101.139 29.7803 101.139 29.7803 101.139 29.7803C101.139 29.7803 101.139 29.7803 101.27 29.7063C101.4 29.6324 101.4 29.6323 101.4 29.6323C101.4 29.6323 101.4 29.6323 101.4 29.6323C101.4 29.6322 101.4 29.6322 101.4 29.6321C101.4 29.632 101.4 29.6319 101.4 29.6317C101.4 29.6315 101.4 29.6311 101.399 29.6306C101.399 29.6297 101.398 29.6285 101.397 29.627C101.396 29.6239 101.393 29.6195 101.39 29.614C101.383 29.6029 101.373 29.5871 101.361 29.5672C101.336 29.5275 101.298 29.4713 101.25 29.4039C101.152 29.2693 101.008 29.089 100.82 28.9052L100.715 29.0126ZM101.27 29.7063L101.215 29.5668L100.056 30.0254L100.111 30.1649L100.166 30.3044L101.325 29.8458L101.27 29.7063ZM100.111 30.1649L100.226 30.069C99.8048 29.5618 99.1328 29.353 98.5674 29.4826C98.2823 29.548 98.0212 29.7004 97.8368 29.9473C97.6522 30.1946 97.5529 30.5255 97.5714 30.9332L97.7213 30.9264L97.8711 30.9196C97.8551 30.569 97.9408 30.3095 98.0772 30.1268C98.2139 29.9437 98.4099 29.8265 98.6344 29.775C99.0883 29.671 99.6455 29.8396 99.9954 30.2607L100.111 30.1649ZM97.7213 30.9264L97.5717 30.9385C97.6747 32.2145 99.2618 32.7517 100.139 31.6919L100.023 31.5963L99.9079 31.5006C99.1998 32.3561 97.9518 31.9181 97.8708 30.9143L97.7213 30.9264ZM101.27 29.7063L101.261 29.856C101.291 29.8578 101.333 29.8514 101.371 29.8194C101.406 29.7892 101.418 29.7521 101.422 29.73C101.429 29.6917 101.42 29.6594 101.418 29.6502C101.41 29.6234 101.397 29.5959 101.385 29.5734C101.359 29.5247 101.318 29.4608 101.264 29.3885C101.157 29.243 100.991 29.0525 100.776 28.8666C100.347 28.4964 99.7023 28.1301 98.9146 28.2042L98.9287 28.3535L98.9427 28.5029C99.6177 28.4394 100.184 28.752 100.58 29.0937C100.777 29.2638 100.928 29.4376 101.023 29.5668C101.071 29.6318 101.103 29.6829 101.12 29.7144C101.129 29.7321 101.13 29.7362 101.128 29.7306C101.128 29.7284 101.126 29.7232 101.126 29.7157C101.125 29.7092 101.123 29.6941 101.127 29.6749C101.131 29.6556 101.142 29.6204 101.175 29.5915C101.211 29.5608 101.252 29.5549 101.279 29.5566L101.27 29.7063ZM100.608 29.9684L100.703 30.084C100.703 30.0844 100.71 30.0791 100.73 30.068C100.748 30.0579 100.772 30.046 100.8 30.0327C100.856 30.0061 100.925 29.9764 100.996 29.9486C101.066 29.9208 101.135 29.8957 101.19 29.8782C101.218 29.8694 101.24 29.8631 101.256 29.8593C101.278 29.8542 101.275 29.8569 101.261 29.856L101.27 29.7063L101.279 29.5566C101.245 29.5545 101.209 29.5623 101.188 29.5673C101.161 29.5735 101.131 29.5823 101.099 29.5924C101.036 29.6125 100.96 29.6401 100.885 29.6696C100.811 29.6992 100.735 29.7315 100.672 29.7614C100.614 29.7885 100.55 29.8213 100.512 29.8528L100.608 29.9684ZM100.608 29.9684L100.512 29.8528C100.543 29.8269 100.583 29.8192 100.617 29.8254C100.63 29.828 100.641 29.8324 100.646 29.8352C100.652 29.8382 100.655 29.8407 100.656 29.8414C100.658 29.8425 100.656 29.8409 100.649 29.8336C100.642 29.8268 100.634 29.8174 100.624 29.8047C100.604 29.779 100.58 29.7465 100.55 29.7063C100.521 29.667 100.488 29.622 100.451 29.5753C100.31 29.3959 100.091 29.1546 99.7956 29.0898L99.7635 29.2363L99.7314 29.3828C99.914 29.4228 100.075 29.5828 100.215 29.7608C100.249 29.8035 100.28 29.8451 100.309 29.8844C100.337 29.9227 100.365 29.9608 100.39 29.9922C100.413 30.0211 100.443 30.0565 100.477 30.0815C100.493 30.094 100.523 30.1131 100.562 30.1204C100.609 30.1292 100.661 30.1187 100.703 30.084L100.608 29.9684ZM99.7635 29.2363L99.8094 29.0935C99.6008 29.0265 99.4845 28.962 99.4169 28.906C99.354 28.8538 99.3283 28.8051 99.3105 28.7522C99.2751 28.6467 99.2667 28.4166 99.0177 28.2329L98.9287 28.3535L98.8396 28.4742C98.9882 28.5839 98.9614 28.6552 99.0261 28.8477C99.0584 28.9438 99.1124 29.0432 99.2256 29.137C99.3341 29.2269 99.4904 29.3061 99.7176 29.3791L99.7635 29.2363ZM97.7213 30.9264L97.5715 30.9173C97.5702 30.9395 97.5515 30.9795 97.4622 31.0469C97.4212 31.0778 97.3741 31.1083 97.3212 31.1421C97.2702 31.1748 97.2133 31.211 97.1611 31.2493C97.0639 31.3206 96.9402 31.4285 96.9175 31.5884C96.8936 31.7572 96.9887 31.915 97.1524 32.0666L97.2544 31.9566L97.3563 31.8465C97.2142 31.7149 97.2119 31.6493 97.2145 31.6306C97.2184 31.6031 97.2454 31.5595 97.3385 31.4912C97.3815 31.4597 97.4296 31.429 97.483 31.3948C97.5346 31.3618 97.5913 31.3253 97.643 31.2863C97.739 31.2138 97.8608 31.1016 97.871 30.9355L97.7213 30.9264ZM97.2544 31.9566L97.1524 32.0666C97.2979 32.2014 97.2933 32.2578 97.2928 32.2614C97.2913 32.2734 97.2796 32.2954 97.2082 32.3545C97.1808 32.3771 97.1393 32.41 97.1064 32.4445C97.0732 32.4795 97.0302 32.5346 97.0192 32.6105C97.0075 32.6922 97.037 32.7654 97.0832 32.826C97.1275 32.884 97.1933 32.9392 97.2767 32.9951L97.3602 32.8705L97.4437 32.7458C97.3719 32.6977 97.337 32.6641 97.3217 32.644C97.3083 32.6265 97.3192 32.6324 97.3162 32.6532C97.314 32.6682 97.3072 32.6688 97.3238 32.6513C97.3409 32.6334 97.363 32.6157 97.3995 32.5856C97.4557 32.539 97.5722 32.446 97.5905 32.2985C97.6099 32.1426 97.5167 31.9951 97.3563 31.8465L97.2544 31.9566ZM97.3602 32.8705L97.2767 32.9951C97.6078 33.2169 98.0176 33.3638 98.4117 33.429C98.8033 33.4938 99.198 33.481 99.4944 33.3637L99.4393 33.2242L99.3841 33.0848C99.1569 33.1746 98.8226 33.1929 98.4607 33.133C98.1015 33.0736 97.7335 32.94 97.4437 32.7458L97.3602 32.8705ZM99.4393 33.2242C99.4865 33.3666 99.4867 33.3665 99.4868 33.3665C99.4869 33.3665 99.487 33.3664 99.4871 33.3664C99.4873 33.3663 99.4875 33.3663 99.4878 33.3662C99.4882 33.366 99.4887 33.3659 99.4892 33.3657C99.4902 33.3653 99.4913 33.365 99.4925 33.3645C99.4949 33.3636 99.4977 33.3625 99.5009 33.3612C99.5072 33.3586 99.5152 33.3549 99.5242 33.3502C99.5419 33.3408 99.5658 33.3259 99.5893 33.3032C99.6408 33.2536 99.6841 33.1718 99.6664 33.0631C99.6506 32.9664 99.5893 32.8686 99.489 32.7653C99.3866 32.6598 99.2302 32.5351 98.9985 32.3857L98.9172 32.5118L98.8359 32.6379C99.0576 32.7808 99.1933 32.8914 99.2738 32.9743C99.3564 33.0594 99.3689 33.1031 99.3703 33.1115C99.3706 33.1134 99.3697 33.1086 99.3726 33.1007C99.3753 33.0935 99.3792 33.089 99.3811 33.0871C99.3828 33.0855 99.3837 33.0851 99.3838 33.085C99.3841 33.0849 99.3847 33.0846 99.3858 33.0841C99.3864 33.0839 99.3872 33.0836 99.3882 33.0832C99.3887 33.083 99.3893 33.0828 99.3899 33.0826C99.3902 33.0825 99.3906 33.0824 99.3909 33.0822C99.3911 33.0822 99.3913 33.0821 99.3914 33.0821C99.3915 33.082 99.3917 33.082 99.3917 33.082C99.3919 33.0819 99.392 33.0819 99.4393 33.2242ZM98.9172 32.5118L98.9985 32.3857C98.4373 32.0239 98.1567 31.6475 98.0158 31.3694C97.945 31.2298 97.9087 31.1135 97.8902 31.0342C97.8809 30.9946 97.8761 30.9642 97.8736 30.9447C97.8724 30.935 97.8717 30.928 97.8714 30.924C97.8712 30.922 97.8712 30.9207 97.8711 30.9202C97.8711 30.9199 97.8711 30.9199 97.8711 30.92C97.8711 30.9201 97.8711 30.9202 97.8711 30.9204C97.8711 30.9205 97.8711 30.9206 97.8711 30.9207C97.8711 30.9207 97.8711 30.9208 97.8711 30.9208C97.8712 30.9209 97.8712 30.921 97.7213 30.9264C97.5713 30.9318 97.5714 30.9319 97.5714 30.932C97.5714 30.932 97.5714 30.9321 97.5714 30.9322C97.5714 30.9324 97.5714 30.9325 97.5714 30.9327C97.5714 30.9331 97.5714 30.9335 97.5714 30.934C97.5715 30.9349 97.5715 30.9361 97.5716 30.9374C97.5718 30.9401 97.572 30.9436 97.5724 30.9479C97.573 30.9565 97.5742 30.9681 97.576 30.9827C97.5797 31.0117 97.5863 31.0523 97.5981 31.1026C97.6216 31.2031 97.6657 31.3422 97.7482 31.505C97.9137 31.8317 98.2311 32.2479 98.8359 32.6379L98.9172 32.5118Z" fill="black"/>
<path d="M103.244 29.3696L102.107 29.1709L102.349 27.791L106.732 28.5573L106.491 29.9372L105.354 29.7386C105.175 29.7072 105.004 29.8272 104.973 30.0065L104.348 33.578L102.887 33.3226L103.512 29.7514C103.543 29.5721 103.423 29.4009 103.244 29.3696Z" fill="url(#paint28_linear_23_776)"/>
<path d="M103.95 28.6838C103.794 28.7799 103.747 28.9843 103.844 29.1392L104.062 29.4872C104.166 29.6531 104.391 29.6924 104.545 29.5716L104.868 29.3182C105.012 29.2054 105.036 28.9971 104.923 28.8539L104.694 28.566C104.59 28.4351 104.405 28.4027 104.263 28.4905L103.95 28.6838Z" fill="url(#paint29_linear_23_776)"/>
<path d="M103.244 29.3696L102.107 29.1709L102.349 27.791L106.732 28.5573L106.491 29.9372L105.354 29.7386C105.175 29.7072 105.004 29.8272 104.973 30.0065L104.348 33.578L102.887 33.3226L103.512 29.7514C103.543 29.5721 103.423 29.4009 103.244 29.3696Z" stroke="black" stroke-width="0.2"/>
<path d="M103.95 28.6838C103.794 28.7799 103.747 28.9843 103.844 29.1392L104.062 29.4872C104.166 29.6531 104.391 29.6924 104.545 29.5716L104.868 29.3182C105.012 29.2054 105.036 28.9971 104.923 28.8539L104.694 28.566C104.59 28.4351 104.405 28.4027 104.263 28.4905L103.95 28.6838Z" stroke="black" stroke-width="0.2"/>
</g>
<defs>
<filter id="filter0_d_23_776" x="-4" y="0" width="156.203" height="143.218" filterUnits="userSpaceOnUse" color-interpolation-filters="sRGB">
<feFlood flood-opacity="0" result="BackgroundImageFix"/>
<feColorMatrix in="SourceAlpha" type="matrix" values="0 0 0 0 0 0 0 0 0 0 0 0 0 0 0 0 0 0 127 0" result="hardAlpha"/>
<feOffset dy="4"/>
<feGaussianBlur stdDeviation="2"/>
<feComposite in2="hardAlpha" operator="out"/>
<feColorMatrix type="matrix" values="0 0 0 0 0 0 0 0 0 0 0 0 0 0 0 0 0 0 0.25 0"/>
<feBlend mode="normal" in2="BackgroundImageFix" result="effect1_dropShadow_23_776"/>
<feBlend mode="normal" in="SourceGraphic" in2="effect1_dropShadow_23_776" result="shape"/>
</filter>
<filter id="filter1_i_23_776" x="12.7373" y="23.892" width="9.7583" height="9.75854" filterUnits="userSpaceOnUse" color-interpolation-filters="sRGB">
<feFlood flood-opacity="0" result="BackgroundImageFix"/>
<feBlend mode="normal" in="SourceGraphic" in2="BackgroundImageFix" result="shape"/>
<feColorMatrix in="SourceAlpha" type="matrix" values="0 0 0 0 0 0 0 0 0 0 0 0 0 0 0 0 0 0 127 0" result="hardAlpha"/>
<feOffset/>
<feGaussianBlur stdDeviation="2"/>
<feComposite in2="hardAlpha" operator="arithmetic" k2="-1" k3="1"/>
<feColorMatrix type="matrix" values="0 0 0 0 0.333333 0 0 0 0 0 0 0 0 0 1 0 0 0 0.25 0"/>
<feBlend mode="normal" in2="shape" result="effect1_innerShadow_23_776"/>
</filter>
<filter id="filter2_i_23_776" x="90.4048" y="98.2747" width="9.7583" height="9.75854" filterUnits="userSpaceOnUse" color-interpolation-filters="sRGB">
<feFlood flood-opacity="0" result="BackgroundImageFix"/>
<feBlend mode="normal" in="SourceGraphic" in2="BackgroundImageFix" result="shape"/>
<feColorMatrix in="SourceAlpha" type="matrix" values="0 0 0 0 0 0 0 0 0 0 0 0 0 0 0 0 0 0 127 0" result="hardAlpha"/>
<feOffset/>
<feGaussianBlur stdDeviation="2"/>
<feComposite in2="hardAlpha" operator="arithmetic" k2="-1" k3="1"/>
<feColorMatrix type="matrix" values="0 0 0 0 0 0 0 0 0 1 0 0 0 0 0.566667 0 0 0 0.25 0"/>
<feBlend mode="normal" in2="shape" result="effect1_innerShadow_23_776"/>
</filter>
<filter id="filter3_i_23_776" x="75.3252" y="10.0247" width="9.21484" height="9.21472" filterUnits="userSpaceOnUse" color-interpolation-filters="sRGB">
<feFlood flood-opacity="0" result="BackgroundImageFix"/>
<feBlend mode="normal" in="SourceGraphic" in2="BackgroundImageFix" result="shape"/>
<feColorMatrix in="SourceAlpha" type="matrix" values="0 0 0 0 0 0 0 0 0 0 0 0 0 0 0 0 0 0 127 0" result="hardAlpha"/>
<feOffset/>
<feGaussianBlur stdDeviation="2"/>
<feComposite in2="hardAlpha" operator="arithmetic" k2="-1" k3="1"/>
<feColorMatrix type="matrix" values="0 0 0 0 0.333333 0 0 0 0 0 0 0 0 0 1 0 0 0 0.25 0"/>
<feBlend mode="normal" in2="shape" result="effect1_innerShadow_23_776"/>
</filter>
<filter id="filter4_i_23_776" x="95.4087" y="115.673" width="9.21484" height="9.21472" filterUnits="userSpaceOnUse" color-interpolation-filters="sRGB">
<feFlood flood-opacity="0" result="BackgroundImageFix"/>
<feBlend mode="normal" in="SourceGraphic" in2="BackgroundImageFix" result="shape"/>
<feColorMatrix in="SourceAlpha" type="matrix" values="0 0 0 0 0 0 0 0 0 0 0 0 0 0 0 0 0 0 127 0" result="hardAlpha"/>
<feOffset/>
<feGaussianBlur stdDeviation="2"/>
<feComposite in2="hardAlpha" operator="arithmetic" k2="-1" k3="1"/>
<feColorMatrix type="matrix" values="0 0 0 0 0 0 0 0 0 1 0 0 0 0 0.566667 0 0 0 0.25 0"/>
<feBlend mode="normal" in2="shape" result="effect1_innerShadow_23_776"/>
</filter>
<filter id="filter5_i_23_776" x="39.4346" y="23.0945" width="9.98145" height="9.98157" filterUnits="userSpaceOnUse" color-interpolation-filters="sRGB">
<feFlood flood-opacity="0" result="BackgroundImageFix"/>
<feBlend mode="normal" in="SourceGraphic" in2="BackgroundImageFix" result="shape"/>
<feColorMatrix in="SourceAlpha" type="matrix" values="0 0 0 0 0 0 0 0 0 0 0 0 0 0 0 0 0 0 127 0" result="hardAlpha"/>
<feOffset/>
<feGaussianBlur stdDeviation="2"/>
<feComposite in2="hardAlpha" operator="arithmetic" k2="-1" k3="1"/>
<feColorMatrix type="matrix" values="0 0 0 0 0.333333 0 0 0 0 0 0 0 0 0 1 0 0 0 0.25 0"/>
<feBlend mode="normal" in2="shape" result="effect1_innerShadow_23_776"/>
</filter>
<filter id="filter6_i_23_776" x="93.4346" y="116.094" width="9.98145" height="9.98157" filterUnits="userSpaceOnUse" color-interpolation-filters="sRGB">
<feFlood flood-opacity="0" result="BackgroundImageFix"/>
<feBlend mode="normal" in="SourceGraphic" in2="BackgroundImageFix" result="shape"/>
<feColorMatrix in="SourceAlpha" type="matrix" values="0 0 0 0 0 0 0 0 0 0 0 0 0 0 0 0 0 0 127 0" result="hardAlpha"/>
<feOffset/>
<feGaussianBlur stdDeviation="2"/>
<feComposite in2="hardAlpha" operator="arithmetic" k2="-1" k3="1"/>
<feColorMatrix type="matrix" values="0 0 0 0 0 0 0 0 0 1 0 0 0 0 0.566667 0 0 0 0.25 0"/>
<feBlend mode="normal" in2="shape" result="effect1_innerShadow_23_776"/>
</filter>
<linearGradient id="paint0_linear_23_776" x1="75.3357" y1="121.377" x2="12.4514" y2="22.3132" gradientUnits="userSpaceOnUse">
<stop stop-color="#F6DFFF"/>
<stop offset="1" stop-color="#B7F8FF"/>
</linearGradient>
<linearGradient id="paint1_linear_23_776" x1="7.50581" y1="23.5548" x2="77.8189" y2="131.268" gradientUnits="userSpaceOnUse">
<stop offset="0.331731" stop-color="#00D9FF" stop-opacity="0.5"/>
<stop offset="1" stop-color="#0900FF" stop-opacity="0.5"/>
</linearGradient>
<linearGradient id="paint2_linear_23_776" x1="27.2515" y1="27.2452" x2="65.2772" y2="18.3541" gradientUnits="userSpaceOnUse">
<stop stop-color="#2EB5B3"/>
<stop offset="1" stop-color="#A98BFE"/>
</linearGradient>
<linearGradient id="paint3_linear_23_776" x1="40.6782" y1="117.043" x2="85.4294" y2="106.211" gradientUnits="userSpaceOnUse">
<stop stop-color="#2EB5B3"/>
<stop offset="1" stop-color="#A98BFE"/>
</linearGradient>
<linearGradient id="paint4_linear_23_776" x1="48.863" y1="94.2148" x2="60.7226" y2="52.9747" gradientUnits="userSpaceOnUse">
<stop stop-color="#2EB5B3"/>
<stop offset="1" stop-color="#A98BFE"/>
</linearGradient>
<linearGradient id="paint5_linear_23_776" x1="70.0515" y1="13.8884" x2="71.1635" y2="18.862" gradientUnits="userSpaceOnUse">
<stop stop-color="#00D9FF"/>
<stop offset="1" stop-color="#E6FBFF"/>
</linearGradient>
<linearGradient id="paint6_linear_23_776" x1="71.2359" y1="13.6417" x2="71.5331" y2="14.9709" gradientUnits="userSpaceOnUse">
<stop stop-color="#0900FF"/>
<stop offset="1" stop-color="#E6FBFF"/>
</linearGradient>
<linearGradient id="paint7_linear_23_776" x1="69.5669" y1="16.3356" x2="70.0403" y2="18.4533" gradientUnits="userSpaceOnUse">
<stop stop-color="#0900FF"/>
<stop offset="1" stop-color="#E6FBFF"/>
</linearGradient>
<linearGradient id="paint8_linear_23_776" x1="75.3999" y1="12.1897" x2="75.9765" y2="17.5147" gradientUnits="userSpaceOnUse">
<stop stop-color="#00D9FF"/>
<stop offset="0.875" stop-color="#E6FBFF"/>
</linearGradient>
<linearGradient id="paint9_linear_23_776" x1="75.4177" y1="12.3536" x2="75.7521" y2="13.1462" gradientUnits="userSpaceOnUse">
<stop stop-color="#0900FF"/>
<stop offset="1" stop-color="#E6FBFF"/>
</linearGradient>
<linearGradient id="paint10_linear_23_776" x1="143.97" y1="101.272" x2="81.0856" y2="2.20834" gradientUnits="userSpaceOnUse">
<stop stop-color="#F6DFFF"/>
<stop offset="1" stop-color="#B7F8FF"/>
</linearGradient>
<linearGradient id="paint11_linear_23_776" x1="76.1401" y1="3.44994" x2="146.453" y2="111.163" gradientUnits="userSpaceOnUse">
<stop offset="0.331731" stop-color="#00D9FF" stop-opacity="0.5"/>
<stop offset="1" stop-color="#0900FF" stop-opacity="0.5"/>
</linearGradient>
<linearGradient id="paint12_linear_23_776" x1="88.6647" y1="18.9806" x2="124.792" y2="33.8074" gradientUnits="userSpaceOnUse">
<stop stop-color="#2EB5B3"/>
<stop offset="1" stop-color="#A98BFE"/>
</linearGradient>
<linearGradient id="paint13_linear_23_776" x1="47.4861" y1="99.9021" x2="90.2167" y2="117.051" gradientUnits="userSpaceOnUse">
<stop stop-color="#2EB5B3"/>
<stop offset="1" stop-color="#A98BFE"/>
</linearGradient>
<linearGradient id="paint14_linear_23_776" x1="67.4" y1="86.0612" x2="100.991" y2="59.3587" gradientUnits="userSpaceOnUse">
<stop stop-color="#2EB5B3"/>
<stop offset="1" stop-color="#A98BFE"/>
</linearGradient>
<linearGradient id="paint15_linear_23_776" x1="131.272" y1="32.9413" x2="129.291" y2="37.6371" gradientUnits="userSpaceOnUse">
<stop stop-color="#00D9FF"/>
<stop offset="1" stop-color="#E6FBFF"/>
</linearGradient>
<linearGradient id="paint16_linear_23_776" x1="132.379" y1="33.4278" x2="131.85" y2="34.6827" gradientUnits="userSpaceOnUse">
<stop stop-color="#0900FF"/>
<stop offset="1" stop-color="#E6FBFF"/>
</linearGradient>
<linearGradient id="paint17_linear_23_776" x1="129.457" y1="34.6531" x2="128.613" y2="36.6524" gradientUnits="userSpaceOnUse">
<stop stop-color="#0900FF"/>
<stop offset="1" stop-color="#E6FBFF"/>
</linearGradient>
<linearGradient id="paint18_linear_23_776" x1="136.613" y1="34.6619" x2="133.992" y2="39.3331" gradientUnits="userSpaceOnUse">
<stop stop-color="#00D9FF"/>
<stop offset="0.875" stop-color="#E6FBFF"/>
</linearGradient>
<linearGradient id="paint19_linear_23_776" x1="136.533" y1="34.8057" x2="136.345" y2="35.6453" gradientUnits="userSpaceOnUse">
<stop stop-color="#0900FF"/>
<stop offset="1" stop-color="#E6FBFF"/>
</linearGradient>
<linearGradient id="paint20_linear_23_776" x1="104.545" y1="117.5" x2="41.6608" y2="18.4361" gradientUnits="userSpaceOnUse">
<stop stop-color="#F6DFFF"/>
<stop offset="1" stop-color="#B7F8FF"/>
</linearGradient>
<linearGradient id="paint21_linear_23_776" x1="36.7153" y1="19.6777" x2="107.028" y2="127.391" gradientUnits="userSpaceOnUse">
<stop offset="0.331731" stop-color="#00D9FF" stop-opacity="0.5"/>
<stop offset="1" stop-color="#0900FF" stop-opacity="0.5"/>
</linearGradient>
<linearGradient id="paint22_linear_23_776" x1="54.1053" y1="29.2904" x2="93.1053" y2="31.2904" gradientUnits="userSpaceOnUse">
<stop stop-color="#2EB5B3"/>
<stop offset="1" stop-color="#A98BFE"/>
</linearGradient>
<linearGradient id="paint23_linear_23_776" x1="42.1091" y1="119.291" x2="88.1091" y2="121.291" gradientUnits="userSpaceOnUse">
<stop stop-color="#2EB5B3"/>
<stop offset="1" stop-color="#A98BFE"/>
</linearGradient>
<linearGradient id="paint24_linear_23_776" x1="56.3027" y1="99.6264" x2="79.1312" y2="63.291" gradientUnits="userSpaceOnUse">
<stop stop-color="#2EB5B3"/>
<stop offset="1" stop-color="#A98BFE"/>
</linearGradient>
<linearGradient id="paint25_linear_23_776" x1="98.9305" y1="28.3234" x2="98.62" y2="33.4103" gradientUnits="userSpaceOnUse">
<stop stop-color="#00D9FF"/>
<stop offset="1" stop-color="#E6FBFF"/>
</linearGradient>
<linearGradient id="paint26_linear_23_776" x1="100.137" y1="28.4148" x2="100.054" y2="29.7743" gradientUnits="userSpaceOnUse">
<stop stop-color="#0900FF"/>
<stop offset="1" stop-color="#E6FBFF"/>
</linearGradient>
<linearGradient id="paint27_linear_23_776" x1="97.7863" y1="30.5403" x2="97.6541" y2="32.7062" gradientUnits="userSpaceOnUse">
<stop stop-color="#0900FF"/>
<stop offset="1" stop-color="#E6FBFF"/>
</linearGradient>
<linearGradient id="paint28_linear_23_776" x1="104.54" y1="28.1742" x2="103.618" y2="33.4503" gradientUnits="userSpaceOnUse">
<stop stop-color="#00D9FF"/>
<stop offset="0.875" stop-color="#E6FBFF"/>
</linearGradient>
<linearGradient id="paint29_linear_23_776" x1="104.512" y1="28.3365" x2="104.613" y2="29.1908" gradientUnits="userSpaceOnUse">
<stop stop-color="#0900FF"/>
<stop offset="1" stop-color="#E6FBFF"/>
</linearGradient>
</defs>
</svg>
