<svg width="78" height="76" viewBox="0 0 78 76" fill="none" xmlns="http://www.w3.org/2000/svg">
<g filter="url(#filter0_d_139_2580)">
<rect x="3.8533" y="12.0384" width="38.7892" height="54.7951" rx="7" transform="rotate(-13.3129 3.8533 12.0384)" fill="url(#paint0_linear_139_2580)" stroke="url(#paint1_linear_139_2580)" stroke-width="2"/>
<g filter="url(#filter1_i_139_2580)">
<path d="M10.5193 13.3457L11.4979 15.211L13.6024 15.3011L11.7372 16.2798L11.647 18.3842L10.6683 16.519L8.56388 16.4289L10.4291 15.4502L10.5193 13.3457Z" fill="white"/>
</g>
<g filter="url(#filter2_i_139_2580)">
<path d="M48.633 50.7411L49.6117 52.6063L51.7162 52.6965L49.8509 53.6752L49.7608 55.7796L48.7821 53.9144L46.6777 53.8243L48.5429 52.8456L48.633 50.7411Z" fill="#F5F5F5"/>
</g>
<path d="M15 14.3725L34.6334 9.78185" stroke="url(#paint2_linear_139_2580)" stroke-width="0.5" stroke-linecap="round"/>
<path d="M20.9419 60.1807L44.0478 54.588" stroke="url(#paint3_linear_139_2580)" stroke-width="0.5" stroke-linecap="round"/>
<path d="M31.425 22.3976C37.7292 23.59 41.8327 29.8803 40.5907 36.4474C39.3485 43.0146 33.2308 47.3724 26.9266 46.18C20.6224 44.9876 16.519 38.6964 17.7611 32.1292C19.0034 25.5622 25.1209 21.2052 31.425 22.3976ZM30.9252 25.0402C25.9719 24.1033 21.1732 27.4841 20.207 32.5919C19.2409 37.6997 22.4734 42.5996 27.4267 43.5365C32.3799 44.4733 37.1787 41.0926 38.1448 35.9848C39.1109 30.877 35.8784 25.9772 30.9252 25.0402Z" fill="url(#paint4_linear_139_2580)"/>
<path d="M32.1776 33.8323L33.8714 37.8365L29.5577 37.3019L25.555 38.9969L26.0881 34.682L24.3947 30.6805L28.7082 31.2138L32.711 29.5202L32.1776 33.8323ZM26.1629 34.6736L29.5475 37.2294L32.1033 33.8448L28.7187 31.289L26.1629 34.6736Z" fill="#8800FF"/>
<rect x="38.6358" y="2.21838" width="38.7892" height="54.7951" rx="7" transform="rotate(22.1611 38.6358 2.21838)" fill="url(#paint5_linear_139_2580)" stroke="url(#paint6_linear_139_2580)" stroke-width="2"/>
<g filter="url(#filter3_i_139_2580)">
<path d="M43.3842 7.78466L43.0988 9.87162L44.7603 11.1663L42.6734 10.8809L41.3786 12.5424L41.6641 10.4554L40.0026 9.16073L42.0895 9.44617L43.3842 7.78466Z" fill="white"/>
</g>
<g filter="url(#filter4_i_139_2580)">
<path d="M52.643 59.7244L52.3576 61.8113L54.0191 63.106L51.9321 62.8206L50.6374 64.4821L50.9229 62.3951L49.2614 61.1004L51.3483 61.3859L52.643 59.7244Z" fill="#F5F5F5"/>
</g>
<path d="M46 11.7819L64.6531 19.4372" stroke="url(#paint7_linear_139_2580)" stroke-width="0.5" stroke-linecap="round"/>
<path d="M24.6143 51.3418L46.6768 60.1964" stroke="url(#paint8_linear_139_2580)" stroke-width="0.5" stroke-linecap="round"/>
<path d="M55.0781 26.6557C59.5201 31.2853 59.2115 38.7894 54.3889 43.4167C49.5661 48.044 42.055 48.0427 37.613 43.413C33.171 38.7834 33.4802 31.2786 38.3029 26.6513C43.1257 22.0242 50.6362 22.0261 55.0781 26.6557ZM53.1375 28.5177C49.6473 24.8801 43.7774 24.8485 40.0263 28.4475C36.2753 32.0465 36.0642 37.9128 39.5543 41.5503C43.0445 45.1878 48.9145 45.2195 52.6655 41.6205C56.4165 38.0215 56.6275 32.1553 53.1375 28.5177Z" fill="url(#paint9_linear_139_2580)"/>
<path d="M49.055 36.4045L48.1106 40.6483L44.9078 37.7096L40.6645 36.7671L43.6027 33.5624L44.5458 29.321L47.7492 32.2585L51.9919 33.2023L49.055 36.4045ZM43.6685 33.5991L44.9417 37.6447L48.9873 36.3715L47.7141 32.3259L43.6685 33.5991Z" fill="#8800FF"/>
<rect x="18.6812" y="10.3411" width="38.7892" height="54.7951" rx="7" transform="rotate(2.7832 18.6812 10.3411)" fill="url(#paint10_linear_139_2580)" stroke="url(#paint11_linear_139_2580)" stroke-width="2"/>
<g filter="url(#filter5_i_139_2580)">
<path d="M24.8903 13.9385L25.3135 16.002L27.3105 16.6721L25.247 17.0952L24.5769 19.0922L24.1538 17.0288L22.1568 16.3587L24.2202 15.9355L24.8903 13.9385Z" fill="white"/>
</g>
<g filter="url(#filter6_i_139_2580)">
<path d="M50.9753 59.9418L51.3985 62.0052L53.3954 62.6753L51.332 63.0985L50.6619 65.0955L50.2387 63.032L48.2418 62.3619L50.3052 61.9387L50.9753 59.9418Z" fill="#F5F5F5"/>
</g>
<path d="M29 16.7819L49.1364 17.8145" stroke="url(#paint12_linear_139_2580)" stroke-width="0.5" stroke-linecap="round"/>
<path d="M21.7529 61.3341L45.5036 62.3667" stroke="url(#paint13_linear_139_2580)" stroke-width="0.5" stroke-linecap="round"/>
<path d="M42.3003 27.9386C48.0267 30.8321 50.2255 38.0135 47.2114 43.9788C44.1972 49.9442 37.1111 52.435 31.3846 49.5415C25.6582 46.648 23.4598 39.4658 26.474 33.5004C29.4883 27.5352 36.5739 25.0451 42.3003 27.9386ZM40.6364 30.1166C36.1371 27.8433 30.5891 29.7611 28.2447 34.4006C25.9003 39.0402 27.6473 44.6451 32.1465 46.9186C36.6458 49.1921 42.1942 47.2734 44.5386 42.6337C46.8828 37.994 45.1357 32.39 40.6364 30.1166Z" fill="url(#paint14_linear_139_2580)"/>
<path d="M39.8531 39.1336L40.3703 43.4504L36.3739 41.7408L32.0583 42.2596L33.7667 38.2616L33.2491 33.9476L37.2457 35.6558L41.5611 35.1384L39.8531 39.1336ZM33.8409 38.2744L36.3843 41.6684L39.7783 39.125L37.2349 35.731L33.8409 38.2744Z" fill="#8800FF"/>
</g>
<defs>
<filter id="filter0_d_139_2580" x="-4" y="0" width="84.52" height="77.8157" filterUnits="userSpaceOnUse" color-interpolation-filters="sRGB">
<feFlood flood-opacity="0" result="BackgroundImageFix"/>
<feColorMatrix in="SourceAlpha" type="matrix" values="0 0 0 0 0 0 0 0 0 0 0 0 0 0 0 0 0 0 127 0" result="hardAlpha"/>
<feOffset dy="4"/>
<feGaussianBlur stdDeviation="2"/>
<feComposite in2="hardAlpha" operator="out"/>
<feColorMatrix type="matrix" values="0 0 0 0 0 0 0 0 0 0 0 0 0 0 0 0 0 0 0.25 0"/>
<feBlend mode="normal" in2="BackgroundImageFix" result="effect1_dropShadow_139_2580"/>
<feBlend mode="normal" in="SourceGraphic" in2="effect1_dropShadow_139_2580" result="shape"/>
</filter>
<filter id="filter1_i_139_2580" x="8.56396" y="13.3457" width="5.03857" height="5.03851" filterUnits="userSpaceOnUse" color-interpolation-filters="sRGB">
<feFlood flood-opacity="0" result="BackgroundImageFix"/>
<feBlend mode="normal" in="SourceGraphic" in2="BackgroundImageFix" result="shape"/>
<feColorMatrix in="SourceAlpha" type="matrix" values="0 0 0 0 0 0 0 0 0 0 0 0 0 0 0 0 0 0 127 0" result="hardAlpha"/>
<feOffset/>
<feGaussianBlur stdDeviation="2"/>
<feComposite in2="hardAlpha" operator="arithmetic" k2="-1" k3="1"/>
<feColorMatrix type="matrix" values="0 0 0 0 0.333333 0 0 0 0 0 0 0 0 0 1 0 0 0 0.25 0"/>
<feBlend mode="normal" in2="shape" result="effect1_innerShadow_139_2580"/>
</filter>
<filter id="filter2_i_139_2580" x="46.6777" y="50.7411" width="5.03857" height="5.03851" filterUnits="userSpaceOnUse" color-interpolation-filters="sRGB">
<feFlood flood-opacity="0" result="BackgroundImageFix"/>
<feBlend mode="normal" in="SourceGraphic" in2="BackgroundImageFix" result="shape"/>
<feColorMatrix in="SourceAlpha" type="matrix" values="0 0 0 0 0 0 0 0 0 0 0 0 0 0 0 0 0 0 127 0" result="hardAlpha"/>
<feOffset/>
<feGaussianBlur stdDeviation="2"/>
<feComposite in2="hardAlpha" operator="arithmetic" k2="-1" k3="1"/>
<feColorMatrix type="matrix" values="0 0 0 0 0 0 0 0 0 1 0 0 0 0 0.566667 0 0 0 0.25 0"/>
<feBlend mode="normal" in2="shape" result="effect1_innerShadow_139_2580"/>
</filter>
<filter id="filter3_i_139_2580" x="40.0024" y="7.78467" width="4.75781" height="4.75775" filterUnits="userSpaceOnUse" color-interpolation-filters="sRGB">
<feFlood flood-opacity="0" result="BackgroundImageFix"/>
<feBlend mode="normal" in="SourceGraphic" in2="BackgroundImageFix" result="shape"/>
<feColorMatrix in="SourceAlpha" type="matrix" values="0 0 0 0 0 0 0 0 0 0 0 0 0 0 0 0 0 0 127 0" result="hardAlpha"/>
<feOffset/>
<feGaussianBlur stdDeviation="2"/>
<feComposite in2="hardAlpha" operator="arithmetic" k2="-1" k3="1"/>
<feColorMatrix type="matrix" values="0 0 0 0 0.333333 0 0 0 0 0 0 0 0 0 1 0 0 0 0.25 0"/>
<feBlend mode="normal" in2="shape" result="effect1_innerShadow_139_2580"/>
</filter>
<filter id="filter4_i_139_2580" x="49.2612" y="59.7244" width="4.75781" height="4.75775" filterUnits="userSpaceOnUse" color-interpolation-filters="sRGB">
<feFlood flood-opacity="0" result="BackgroundImageFix"/>
<feBlend mode="normal" in="SourceGraphic" in2="BackgroundImageFix" result="shape"/>
<feColorMatrix in="SourceAlpha" type="matrix" values="0 0 0 0 0 0 0 0 0 0 0 0 0 0 0 0 0 0 127 0" result="hardAlpha"/>
<feOffset/>
<feGaussianBlur stdDeviation="2"/>
<feComposite in2="hardAlpha" operator="arithmetic" k2="-1" k3="1"/>
<feColorMatrix type="matrix" values="0 0 0 0 0 0 0 0 0 1 0 0 0 0 0.566667 0 0 0 0.25 0"/>
<feBlend mode="normal" in2="shape" result="effect1_innerShadow_139_2580"/>
</filter>
<filter id="filter5_i_139_2580" x="22.1567" y="13.9385" width="5.15381" height="5.15369" filterUnits="userSpaceOnUse" color-interpolation-filters="sRGB">
<feFlood flood-opacity="0" result="BackgroundImageFix"/>
<feBlend mode="normal" in="SourceGraphic" in2="BackgroundImageFix" result="shape"/>
<feColorMatrix in="SourceAlpha" type="matrix" values="0 0 0 0 0 0 0 0 0 0 0 0 0 0 0 0 0 0 127 0" result="hardAlpha"/>
<feOffset/>
<feGaussianBlur stdDeviation="2"/>
<feComposite in2="hardAlpha" operator="arithmetic" k2="-1" k3="1"/>
<feColorMatrix type="matrix" values="0 0 0 0 0.333333 0 0 0 0 0 0 0 0 0 1 0 0 0 0.25 0"/>
<feBlend mode="normal" in2="shape" result="effect1_innerShadow_139_2580"/>
</filter>
<filter id="filter6_i_139_2580" x="48.2417" y="59.9418" width="5.15381" height="5.15369" filterUnits="userSpaceOnUse" color-interpolation-filters="sRGB">
<feFlood flood-opacity="0" result="BackgroundImageFix"/>
<feBlend mode="normal" in="SourceGraphic" in2="BackgroundImageFix" result="shape"/>
<feColorMatrix in="SourceAlpha" type="matrix" values="0 0 0 0 0 0 0 0 0 0 0 0 0 0 0 0 0 0 127 0" result="hardAlpha"/>
<feOffset/>
<feGaussianBlur stdDeviation="2"/>
<feComposite in2="hardAlpha" operator="arithmetic" k2="-1" k3="1"/>
<feColorMatrix type="matrix" values="0 0 0 0 0 0 0 0 0 1 0 0 0 0 0.566667 0 0 0 0.25 0"/>
<feBlend mode="normal" in2="shape" result="effect1_innerShadow_139_2580"/>
</filter>
<linearGradient id="paint0_linear_139_2580" x1="38.8975" y1="62.669" x2="6.42911" y2="11.5207" gradientUnits="userSpaceOnUse">
<stop stop-color="#F6DFFF"/>
<stop offset="1" stop-color="#B7F8FF"/>
</linearGradient>
<linearGradient id="paint1_linear_139_2580" x1="3.87563" y1="12.1618" x2="40.1796" y2="67.776" gradientUnits="userSpaceOnUse">
<stop offset="0.331731" stop-color="#00D9FF" stop-opacity="0.5"/>
<stop offset="1" stop-color="#0900FF" stop-opacity="0.5"/>
</linearGradient>
<linearGradient id="paint2_linear_139_2580" x1="15.1138" y1="14.8594" x2="34.7472" y2="10.2687" gradientUnits="userSpaceOnUse">
<stop stop-color="#2EB5B3"/>
<stop offset="1" stop-color="#A98BFE"/>
</linearGradient>
<linearGradient id="paint3_linear_139_2580" x1="21.0595" y1="60.6666" x2="44.1654" y2="55.0739" gradientUnits="userSpaceOnUse">
<stop stop-color="#2EB5B3"/>
<stop offset="1" stop-color="#A98BFE"/>
</linearGradient>
<linearGradient id="paint4_linear_139_2580" x1="25.2286" y1="48.6456" x2="31.3522" y2="27.352" gradientUnits="userSpaceOnUse">
<stop stop-color="#2EB5B3"/>
<stop offset="1" stop-color="#A98BFE"/>
</linearGradient>
<linearGradient id="paint5_linear_139_2580" x1="74.3345" y1="52.2885" x2="41.8661" y2="1.14021" gradientUnits="userSpaceOnUse">
<stop stop-color="#F6DFFF"/>
<stop offset="1" stop-color="#B7F8FF"/>
</linearGradient>
<linearGradient id="paint6_linear_139_2580" x1="39.3126" y1="1.78128" x2="75.6166" y2="57.3955" gradientUnits="userSpaceOnUse">
<stop offset="0.331731" stop-color="#00D9FF" stop-opacity="0.5"/>
<stop offset="1" stop-color="#0900FF" stop-opacity="0.5"/>
</linearGradient>
<linearGradient id="paint7_linear_139_2580" x1="45.8102" y1="12.2444" x2="64.4633" y2="19.8998" gradientUnits="userSpaceOnUse">
<stop stop-color="#2EB5B3"/>
<stop offset="1" stop-color="#A98BFE"/>
</linearGradient>
<linearGradient id="paint8_linear_139_2580" x1="24.428" y1="51.8058" x2="46.4906" y2="60.6604" gradientUnits="userSpaceOnUse">
<stop stop-color="#2EB5B3"/>
<stop offset="1" stop-color="#A98BFE"/>
</linearGradient>
<linearGradient id="paint9_linear_139_2580" x1="34.7993" y1="44.4355" x2="52.1436" y2="30.6482" gradientUnits="userSpaceOnUse">
<stop stop-color="#2EB5B3"/>
<stop offset="1" stop-color="#A98BFE"/>
</linearGradient>
<linearGradient id="paint10_linear_139_2580" x1="53.9786" y1="60.6672" x2="21.5102" y2="9.51894" gradientUnits="userSpaceOnUse">
<stop stop-color="#F6DFFF"/>
<stop offset="1" stop-color="#B7F8FF"/>
</linearGradient>
<linearGradient id="paint11_linear_139_2580" x1="18.9567" y1="10.16" x2="55.2607" y2="65.7742" gradientUnits="userSpaceOnUse">
<stop offset="0.331731" stop-color="#00D9FF" stop-opacity="0.5"/>
<stop offset="1" stop-color="#0900FF" stop-opacity="0.5"/>
</linearGradient>
<linearGradient id="paint12_linear_139_2580" x1="28.9744" y1="17.2812" x2="49.1108" y2="18.3138" gradientUnits="userSpaceOnUse">
<stop stop-color="#2EB5B3"/>
<stop offset="1" stop-color="#A98BFE"/>
</linearGradient>
<linearGradient id="paint13_linear_139_2580" x1="21.7312" y1="61.8336" x2="45.4819" y2="62.8663" gradientUnits="userSpaceOnUse">
<stop stop-color="#2EB5B3"/>
<stop offset="1" stop-color="#A98BFE"/>
</linearGradient>
<linearGradient id="paint14_linear_139_2580" x1="29.0696" y1="51.4396" x2="40.8568" y2="32.6786" gradientUnits="userSpaceOnUse">
<stop stop-color="#2EB5B3"/>
<stop offset="1" stop-color="#A98BFE"/>
</linearGradient>
</defs>
</svg>
