<svg width="209" height="67" viewBox="0 0 209 67" fill="none" xmlns="http://www.w3.org/2000/svg">
<g filter="url(#filter0_d_187_905)">
<path d="M28 38.1816L35.5 42.1816C29.9689 49.8438 21.5 51.6817 13.5 48.6816C6.5 45.1816 4.5 39.6816 4.5 33.6816V32.6816C4.63549 30.5547 5.5 21.1816 15.5 17.6818C21.1437 15.7066 28.2309 17.985 31.3039 20.8186C33.676 23.0059 35 25.1816 35 25.1816L28 28.6816C22.876 22.8548 12.5 24.6816 13.5 34.6816C14.5 42.1816 23.4568 44.8338 28 38.1816Z" fill="url(#paint0_linear_187_905)"/>
<path d="M35 25.1816C35.5 25.1814 29 15.6819 20 17.182C22.5712 18.962 20 21.182 25.5 22.682C28.5 23.182 30.5 27.682 31 27.182C31.5 26.682 34.5 25.1819 35 25.1816Z" fill="url(#paint1_linear_187_905)"/>
<path d="M13.5 34.6816C13.5 37.1815 7.00006 38.1818 11 41.6818C14.9999 45.1818 8.00002 45.1818 12 47.6818C16 50.1818 21.8377 50.763 25 49.1818C25 49.1818 27.3334 48.1818 21.5001 44.6818C14.0001 40.1818 13.5 34.6816 13.5 34.6816Z" fill="#D9D9D9"/>
<path d="M13.5 34.6816C13.5 37.1815 7.00006 38.1818 11 41.6818C14.9999 45.1818 8.00002 45.1818 12 47.6818C16 50.1818 21.8377 50.763 25 49.1818C25 49.1818 27.3334 48.1818 21.5001 44.6818C14.0001 40.1818 13.5 34.6816 13.5 34.6816Z" fill="url(#paint2_linear_187_905)"/>
<path d="M28 38.1816L28.2353 37.7405L27.8399 37.5296L27.5871 37.8997L28 38.1816ZM35.5 42.1816L35.9054 42.4743L36.2406 42.01L35.7353 41.7405L35.5 42.1816ZM13.5 48.6816L13.2764 49.1289L13.2999 49.1406L13.3244 49.1498L13.5 48.6816ZM4.5 32.6816L4.00101 32.6499L4 32.6657V32.6816H4.5ZM15.5 17.6818L15.6652 18.1537V18.1537L15.5 17.6818ZM31.3039 20.8186L30.965 21.1862L31.3039 20.8186ZM28 28.6816L27.6245 29.0118L27.879 29.3012L28.2236 29.1289L28 28.6816ZM20 17.182L19.9178 16.6888L18.7019 16.8914L19.7154 17.5931L20 17.182ZM25.5 22.682L25.3684 23.1644L25.3928 23.171L25.4178 23.1752L25.5 22.682ZM25 49.1818L24.8031 48.7223L24.7895 48.728L24.7764 48.7346L25 49.1818ZM21.5001 44.6818L21.2428 45.1106L21.5001 44.6818ZM28 38.1816L27.7647 38.6228L35.2647 42.6228L35.5 42.1816L35.7353 41.7405L28.2353 37.7405L28 38.1816ZM35.5 42.1816L35.0946 41.889C29.7081 49.3508 21.4855 51.1422 13.6756 48.2135L13.5 48.6816L13.3244 49.1498C21.5145 52.2211 30.2297 50.3368 35.9054 42.4743L35.5 42.1816ZM13.5 48.6816L13.7236 48.2344C10.3054 46.5253 8.13644 44.3443 6.81558 41.8827C5.49136 39.4148 5 36.6283 5 33.6816H4.5H4C4 36.735 4.50864 39.6984 5.93442 42.3555C7.36356 45.0189 9.69463 47.338 13.2764 49.1289L13.5 48.6816ZM4.5 33.6816H5V32.6816H4.5H4V33.6816H4.5ZM4.5 32.6816L4.99899 32.7134C5.13307 30.6086 5.97987 21.5434 15.6652 18.1537L15.5 17.6818L15.3348 17.2099C5.02013 20.8198 4.13791 30.5008 4.00101 32.6499L4.5 32.6816ZM15.5 17.6818L15.6652 18.1537C18.3731 17.206 21.4543 17.2719 24.2509 17.9335C27.0518 18.5961 29.5071 19.8419 30.965 21.1862L31.3039 20.8186L31.6429 20.4511C30.0278 18.9618 27.4029 17.6515 24.4811 16.9603C21.5549 16.2681 18.2706 16.1824 15.3348 17.2099L15.5 17.6818ZM31.3039 20.8186L30.965 21.1862C32.1252 22.256 33.0303 23.3243 33.6449 24.1248C33.9519 24.5248 34.1858 24.8569 34.342 25.0878C34.4201 25.2032 34.4787 25.2931 34.5174 25.3535C34.5368 25.3837 34.5511 25.4065 34.5604 25.4214C34.565 25.4288 34.5683 25.4342 34.5704 25.4376C34.5715 25.4393 34.5722 25.4405 34.5726 25.4411C34.5728 25.4415 34.5729 25.4417 34.573 25.4418C34.573 25.4418 34.573 25.4418 34.573 25.4418C34.573 25.4417 34.5729 25.4417 34.5729 25.4417C34.5729 25.4416 34.5729 25.4416 35 25.1816C35.4271 24.9217 35.4271 24.9216 35.427 24.9216C35.427 24.9215 35.4269 24.9214 35.4269 24.9213C35.4268 24.9212 35.4267 24.921 35.4265 24.9207C35.4263 24.9203 35.4259 24.9197 35.4254 24.919C35.4246 24.9175 35.4234 24.9156 35.4218 24.9131C35.4188 24.9081 35.4144 24.901 35.4088 24.892C35.3975 24.8739 35.381 24.8478 35.3595 24.8142C35.3165 24.7471 35.2532 24.65 35.1701 24.5273C35.004 24.2818 34.7586 23.9333 34.4381 23.5159C33.7977 22.6818 32.8547 21.5685 31.6429 20.4511L31.3039 20.8186ZM35 25.1816L34.7764 24.7344L27.7764 28.2344L28 28.6816L28.2236 29.1289L35.2236 25.6289L35 25.1816ZM28 28.6816L28.3755 28.3515C25.6896 25.2972 21.6114 24.2288 18.3034 25.2696C16.6428 25.7921 15.1771 26.8474 14.197 28.4445C13.2174 30.0407 12.7437 32.1438 13.0025 34.7314L13.5 34.6816L13.9975 34.6319C13.7563 32.2194 14.2045 30.3441 15.0493 28.9675C15.8936 27.5916 17.1547 26.6794 18.6036 26.2235C21.5146 25.3076 25.1864 26.2393 27.6245 29.0118L28 28.6816ZM13.5 34.6816L13.0044 34.7477C13.5308 38.6958 16.1632 41.4011 19.2944 42.2223C22.4362 43.0464 26.0252 41.9597 28.4129 38.4636L28 38.1816L27.5871 37.8997C25.4316 41.0557 22.2706 41.9691 19.5481 41.255C16.8152 40.5382 14.4692 38.1674 13.9956 34.6155L13.5 34.6816ZM35 25.1816L35.0002 25.6816C35.1126 25.6816 35.2597 25.6444 35.3778 25.5223C35.4854 25.411 35.5148 25.2842 35.5231 25.2123C35.5383 25.082 35.5039 24.969 35.4887 24.9217C35.4499 24.8016 35.3801 24.6638 35.3018 24.5274C35.1386 24.2432 34.8754 23.8575 34.5263 23.4122C33.8261 22.5189 32.7536 21.351 31.3781 20.2314C28.6354 17.9991 24.6178 15.9054 19.9178 16.6888L20 17.182L20.0822 17.6752C24.3822 16.9585 28.1146 18.8645 30.7469 21.007C32.0589 22.0749 33.0801 23.1881 33.7393 24.0291C34.0699 24.4509 34.3028 24.7958 34.4345 25.0253C34.5037 25.1457 34.5311 25.2106 34.537 25.2288C34.5441 25.2508 34.5189 25.191 34.5299 25.0965C34.5362 25.0425 34.5601 24.9294 34.6588 24.8272C34.7681 24.7142 34.9031 24.6817 34.9998 24.6816L35 25.1816ZM31 27.182L31.3535 27.5355C31.4263 27.4628 31.6518 27.3051 32.0187 27.0897C32.3662 26.8857 32.7935 26.6567 33.2236 26.4416C33.654 26.2264 34.0802 26.0287 34.4253 25.8861C34.5984 25.8146 34.7449 25.7595 34.8579 25.7232C34.99 25.6808 35.0243 25.6816 35.0002 25.6816L35 25.1816L34.9998 24.6816C34.8507 24.6817 34.6818 24.7295 34.5522 24.7711C34.4036 24.8188 34.2297 24.8849 34.0434 24.9619C33.6698 25.1162 33.221 25.3249 32.7764 25.5472C32.3315 25.7697 31.8837 26.0094 31.5125 26.2273C31.1607 26.4338 30.8237 26.6512 30.6464 26.8284L31 27.182ZM31 27.182L30.6464 26.8284C30.7292 26.7457 30.8485 26.7098 30.9538 26.7236C31.0272 26.7332 31.0571 26.7622 31.0306 26.7436C30.9798 26.7079 30.8848 26.6159 30.7329 26.4368C30.5883 26.2662 30.4215 26.0526 30.2246 25.8014C30.0304 25.5534 29.8113 25.2746 29.5716 24.9869C28.636 23.8641 27.2818 22.472 25.5822 22.1888L25.5 22.682L25.4178 23.1752C26.7182 23.3919 27.864 24.4998 28.8034 25.6271C29.0324 25.9019 29.2431 26.17 29.4375 26.4181C29.6293 26.6629 29.8101 26.8946 29.9702 27.0835C30.123 27.2637 30.2897 27.4452 30.4557 27.5618C30.5376 27.6193 30.6646 27.6942 30.8238 27.7151C31.0147 27.7401 31.2083 27.6808 31.3535 27.5355L31 27.182ZM25.5 22.682L25.6316 22.1996C24.2907 21.8339 23.49 21.4366 22.9895 21.046C22.5035 20.6666 22.277 20.2755 22.1192 19.8596C21.8072 19.0374 21.7388 17.7777 20.2846 16.7709L20 17.182L19.7154 17.5931C20.8324 18.3664 20.7639 19.1066 21.1842 20.2144C21.3925 20.7635 21.7151 21.3199 22.3742 21.8343C23.0189 22.3374 23.9593 22.78 25.3684 23.1644L25.5 22.682ZM13.5 34.6816H13C13 35.0803 12.7404 35.4834 12.2095 35.9688C11.9527 36.2036 11.6594 36.4342 11.3468 36.678C11.0401 36.9172 10.7136 37.1701 10.4178 37.433C9.84393 37.9432 9.26722 38.59 9.20454 39.4256C9.14 40.2862 9.62813 41.1458 10.6707 42.0581L11 41.6818L11.3292 41.3056C10.3719 40.4678 10.1725 39.8899 10.2017 39.5004C10.2328 39.0861 10.5311 38.6703 11.0822 38.1804C11.349 37.9433 11.6474 37.7117 11.9618 37.4665C12.2703 37.2259 12.5942 36.9721 12.8843 36.7069C13.4471 36.1923 14 35.5329 14 34.6816H13.5ZM11 41.6818L10.6707 42.0581C11.639 42.9054 11.7992 43.4231 11.7821 43.715C11.7635 44.0305 11.5393 44.3104 11.1464 44.7033C10.9726 44.8771 10.7556 45.0849 10.5876 45.2983C10.4171 45.5149 10.2469 45.7969 10.2202 46.1435C10.1923 46.5067 10.3277 46.8478 10.584 47.1644C10.8332 47.4722 11.2139 47.7801 11.735 48.1058L12 47.6818L12.265 47.2578C11.7861 46.9585 11.5106 46.7196 11.3613 46.5352C11.2191 46.3596 11.214 46.2633 11.2173 46.2202C11.2219 46.1605 11.2548 46.0675 11.3733 45.9169C11.4943 45.7632 11.6524 45.6115 11.8535 45.4104C12.2106 45.0533 12.7364 44.5207 12.7803 43.7737C12.8257 43.003 12.3609 42.2083 11.3292 41.3056L11 41.6818ZM12 47.6818L11.735 48.1058C13.8079 49.4014 16.3415 50.1921 18.7592 50.4592C21.1679 50.7253 23.5252 50.4782 25.2236 49.629L25 49.1818L24.7764 48.7346C23.3125 49.4666 21.1698 49.7195 18.8691 49.4653C16.5773 49.2121 14.1921 48.4623 12.265 47.2578L12 47.6818ZM25 49.1818C25.197 49.6414 25.1975 49.6412 25.198 49.641C25.1981 49.6409 25.1987 49.6407 25.199 49.6405C25.1998 49.6402 25.2005 49.6399 25.2013 49.6395C25.2029 49.6388 25.2047 49.638 25.2066 49.6372C25.2104 49.6354 25.2149 49.6334 25.2199 49.6311C25.2298 49.6264 25.242 49.6204 25.2562 49.613C25.2843 49.5983 25.3207 49.5778 25.362 49.5508C25.4435 49.4977 25.5508 49.4152 25.6526 49.2968C25.8686 49.0456 26.0359 48.6558 25.9267 48.1406C25.8243 47.6582 25.4907 47.1208 24.8567 46.5034C24.2171 45.8804 23.2336 45.1389 21.7573 44.2531L21.5001 44.6818L21.2428 45.1106C22.6832 45.9748 23.5955 46.6708 24.159 47.2197C24.7282 47.7741 24.9049 48.143 24.9484 48.3481C24.985 48.5204 24.9336 48.5993 24.8943 48.6449C24.8685 48.675 24.839 48.698 24.8158 48.7132C24.8047 48.7205 24.7966 48.7249 24.7934 48.7265C24.7919 48.7273 24.7917 48.7274 24.7932 48.7267C24.7939 48.7263 24.7951 48.7258 24.7967 48.725C24.7975 48.7247 24.7985 48.7242 24.7995 48.7238C24.8001 48.7236 24.8006 48.7233 24.8012 48.7231C24.8015 48.7229 24.802 48.7227 24.8021 48.7227C24.8026 48.7225 24.8031 48.7223 25 49.1818ZM21.5001 44.6818L21.7573 44.2531C18.0842 42.0492 16.1463 39.6145 15.1259 37.7538C14.6148 36.8217 14.3316 36.0294 14.1768 35.4765C14.0994 35.2 14.0541 34.9834 14.0284 34.8392C14.0156 34.767 14.0077 34.713 14.0031 34.6787C14.0008 34.6615 13.9994 34.6493 13.9986 34.6422C13.9982 34.6386 13.998 34.6363 13.9979 34.6353C13.9978 34.6348 13.9978 34.6347 13.9978 34.6348C13.9978 34.6349 13.9978 34.6351 13.9979 34.6353C13.9979 34.6355 13.9979 34.6357 13.9979 34.6358C13.9979 34.6361 13.9979 34.6363 13.5 34.6816C13.0021 34.7269 13.0021 34.7272 13.0021 34.7276C13.0021 34.7277 13.0022 34.7281 13.0022 34.7284C13.0022 34.729 13.0023 34.7296 13.0024 34.7304C13.0025 34.7319 13.0027 34.7337 13.0029 34.7359C13.0034 34.7402 13.004 34.7459 13.0047 34.7529C13.0063 34.7669 13.0086 34.7861 13.0118 34.8103C13.0182 34.8587 13.0284 34.9273 13.0439 35.0143C13.0748 35.1884 13.1272 35.4367 13.2138 35.7462C13.3872 36.3652 13.6978 37.2292 14.2491 38.2346C15.3538 40.2491 17.416 42.8145 21.2428 45.1106L21.5001 44.6818Z" fill="black"/>
<path d="M48.7 49.72C46.364 49.72 44.316 49.144 42.556 47.992C40.796 46.84 39.42 45.304 38.428 43.384C37.436 41.432 36.94 39.288 36.94 36.952C36.94 34.616 37.516 32.488 38.668 30.568C39.852 28.648 41.436 27.112 43.42 25.96C45.404 24.808 47.644 24.232 50.14 24.232C52.7 24.232 54.972 24.792 56.956 25.912C58.94 27 60.492 28.504 61.612 30.424C62.764 32.312 63.34 34.488 63.34 36.952V49H55.18V40.6H57.58C57.58 42.36 57.228 43.928 56.524 45.304C55.82 46.68 54.812 47.768 53.5 48.568C52.188 49.336 50.588 49.72 48.7 49.72ZM50.14 41.608C51.068 41.608 51.868 41.4 52.54 40.984C53.212 40.568 53.74 40.008 54.124 39.304C54.508 38.6 54.7 37.832 54.7 37C54.7 36.136 54.508 35.352 54.124 34.648C53.74 33.944 53.212 33.384 52.54 32.968C51.868 32.552 51.068 32.344 50.14 32.344C49.244 32.344 48.444 32.552 47.74 32.968C47.068 33.384 46.54 33.944 46.156 34.648C45.772 35.352 45.58 36.136 45.58 37C45.58 37.832 45.772 38.6 46.156 39.304C46.54 40.008 47.068 40.568 47.74 40.984C48.444 41.4 49.244 41.608 50.14 41.608ZM76.7744 49H68.1344V35.704C68.1344 33.56 68.5504 31.624 69.3824 29.896C70.2144 28.168 71.4784 26.792 73.1744 25.768C74.8704 24.744 77.0144 24.232 79.6064 24.232C80.4384 24.232 81.2544 24.312 82.0544 24.472C82.8864 24.6 83.6064 24.792 84.2144 25.048V33.352C83.6384 33.032 83.0144 32.792 82.3424 32.632C81.6704 32.472 81.0304 32.392 80.4224 32.392C79.3024 32.392 78.4064 32.712 77.7344 33.352C77.0944 33.96 76.7744 34.84 76.7744 35.992V49ZM99.5931 49.72C97.0971 49.72 94.8571 49.144 92.8731 47.992C90.8891 46.84 89.3051 45.304 88.1211 43.384C86.9691 41.464 86.3931 39.352 86.3931 37.048C86.3931 34.488 86.9211 32.248 87.9771 30.328C89.0331 28.408 90.5211 26.92 92.4411 25.864C94.3611 24.808 96.5851 24.28 99.1131 24.28C100.681 24.28 102.153 24.616 103.529 25.288C104.905 25.96 106.025 26.856 106.889 27.976C107.753 29.064 108.185 30.232 108.185 31.48H104.153V13.96H112.793V37.048C112.793 39.48 112.217 41.656 111.065 43.576C109.945 45.496 108.393 47 106.409 48.088C104.425 49.176 102.153 49.72 99.5931 49.72ZM99.5931 41.608C100.521 41.608 101.321 41.4 101.993 40.984C102.665 40.568 103.193 40.008 103.577 39.304C103.961 38.6 104.153 37.832 104.153 37C104.153 36.168 103.961 35.4 103.577 34.696C103.193 33.992 102.665 33.432 101.993 33.016C101.321 32.6 100.521 32.392 99.5931 32.392C98.6971 32.392 97.8971 32.6 97.1931 33.016C96.5211 33.432 95.9931 33.992 95.6091 34.696C95.2251 35.4 95.0331 36.168 95.0331 37C95.0331 37.832 95.2251 38.6 95.6091 39.304C95.9931 40.008 96.5211 40.568 97.1931 40.984C97.8971 41.4 98.6971 41.608 99.5931 41.608Z" fill="#00E6FF"/>
</g>
<g filter="url(#filter1_d_187_905)">
<path d="M127.5 25.75H120.5V17.25H147.5V25.75H140.5C139.395 25.75 138.5 26.6454 138.5 27.75V49.75H129.5V27.7523C129.5 26.6478 128.605 25.75 127.5 25.75Z" fill="url(#paint3_linear_187_905)"/>
<path d="M131.004 20.913C130.175 21.6501 130.104 22.9212 130.846 23.7458L132.513 25.5982C133.308 26.481 134.692 26.481 135.487 25.5982L137.154 23.7458C137.896 22.9212 137.825 21.6501 136.996 20.913L135.329 19.4311C134.571 18.7575 133.429 18.7575 132.671 19.4311L131.004 20.913Z" fill="url(#paint4_linear_187_905)"/>
<path d="M127.5 25.75H120.5V17.25H147.5V25.75H140.5C139.395 25.75 138.5 26.6454 138.5 27.75V49.75H129.5V27.7523C129.5 26.6478 128.605 25.75 127.5 25.75Z" stroke="black"/>
<path d="M131.004 20.913C130.175 21.6501 130.104 22.9212 130.846 23.7458L132.513 25.5982C133.308 26.481 134.692 26.481 135.487 25.5982L137.154 23.7458C137.896 22.9212 137.825 21.6501 136.996 20.913L135.329 19.4311C134.571 18.7575 133.429 18.7575 132.671 19.4311L131.004 20.913Z" stroke="black"/>
<path d="M162.14 49.72C159.644 49.72 157.404 49.144 155.42 47.992C153.436 46.84 151.852 45.304 150.668 43.384C149.516 41.432 148.94 39.288 148.94 36.952C148.94 34.616 149.516 32.488 150.668 30.568C151.852 28.648 153.436 27.112 155.42 25.96C157.404 24.808 159.644 24.232 162.14 24.232C164.636 24.232 166.876 24.808 168.86 25.96C170.876 27.112 172.46 28.648 173.612 30.568C174.764 32.488 175.34 34.616 175.34 36.952C175.34 39.288 174.764 41.432 173.612 43.384C172.46 45.304 170.876 46.84 168.86 47.992C166.876 49.144 164.636 49.72 162.14 49.72ZM162.14 41.608C163.068 41.608 163.868 41.4 164.54 40.984C165.212 40.568 165.74 40.008 166.124 39.304C166.508 38.6 166.7 37.832 166.7 37C166.7 36.136 166.508 35.352 166.124 34.648C165.74 33.944 165.212 33.384 164.54 32.968C163.868 32.552 163.068 32.344 162.14 32.344C161.244 32.344 160.444 32.552 159.74 32.968C159.068 33.384 158.54 33.944 158.156 34.648C157.772 35.352 157.58 36.136 157.58 37C157.58 37.832 157.772 38.6 158.156 39.304C158.54 40.008 159.068 40.568 159.74 40.984C160.444 41.4 161.244 41.608 162.14 41.608ZM191.437 49.72C188.941 49.72 186.701 49.144 184.717 47.992C182.733 46.84 181.149 45.304 179.965 43.384C178.813 41.432 178.237 39.288 178.237 36.952C178.237 34.616 178.813 32.488 179.965 30.568C181.149 28.648 182.733 27.112 184.717 25.96C186.701 24.808 188.941 24.232 191.437 24.232C193.933 24.232 196.173 24.808 198.157 25.96C200.173 27.112 201.757 28.648 202.909 30.568C204.061 32.488 204.637 34.616 204.637 36.952C204.637 39.288 204.061 41.432 202.909 43.384C201.757 45.304 200.173 46.84 198.157 47.992C196.173 49.144 193.933 49.72 191.437 49.72ZM191.437 41.608C192.365 41.608 193.165 41.4 193.837 40.984C194.509 40.568 195.037 40.008 195.421 39.304C195.805 38.6 195.997 37.832 195.997 37C195.997 36.136 195.805 35.352 195.421 34.648C195.037 33.944 194.509 33.384 193.837 32.968C193.165 32.552 192.365 32.344 191.437 32.344C190.541 32.344 189.741 32.552 189.037 32.968C188.365 33.384 187.837 33.944 187.453 34.648C187.069 35.352 186.877 36.136 186.877 37C186.877 37.832 187.069 38.6 187.453 39.304C187.837 40.008 188.365 40.568 189.037 40.984C189.741 41.4 190.541 41.608 191.437 41.608Z" fill="#00E6FF"/>
</g>
<defs>
<filter id="filter0_d_187_905" x="0" y="0" width="119.5" height="75" filterUnits="userSpaceOnUse" color-interpolation-filters="sRGB">
<feFlood flood-opacity="0" result="BackgroundImageFix"/>
<feColorMatrix in="SourceAlpha" type="matrix" values="0 0 0 0 0 0 0 0 0 0 0 0 0 0 0 0 0 0 127 0" result="hardAlpha"/>
<feOffset dy="4"/>
<feGaussianBlur stdDeviation="2"/>
<feComposite in2="hardAlpha" operator="out"/>
<feColorMatrix type="matrix" values="0 0 0 0 0.662745 0 0 0 0 0.545098 0 0 0 0 0.996078 0 0 0 0.25 0"/>
<feBlend mode="normal" in2="BackgroundImageFix" result="effect1_dropShadow_187_905"/>
<feBlend mode="normal" in="SourceGraphic" in2="effect1_dropShadow_187_905" result="shape"/>
</filter>
<filter id="filter1_d_187_905" x="116" y="0" width="94.5" height="75" filterUnits="userSpaceOnUse" color-interpolation-filters="sRGB">
<feFlood flood-opacity="0" result="BackgroundImageFix"/>
<feColorMatrix in="SourceAlpha" type="matrix" values="0 0 0 0 0 0 0 0 0 0 0 0 0 0 0 0 0 0 127 0" result="hardAlpha"/>
<feOffset dy="4"/>
<feGaussianBlur stdDeviation="2"/>
<feComposite in2="hardAlpha" operator="out"/>
<feColorMatrix type="matrix" values="0 0 0 0 0.662745 0 0 0 0 0.545098 0 0 0 0 0.996078 0 0 0 0.25 0"/>
<feBlend mode="normal" in2="BackgroundImageFix" result="effect1_dropShadow_187_905"/>
<feBlend mode="normal" in="SourceGraphic" in2="effect1_dropShadow_187_905" result="shape"/>
</filter>
<linearGradient id="paint0_linear_187_905" x1="20" y1="16.9818" x2="20" y2="50.7429" gradientUnits="userSpaceOnUse">
<stop stop-color="#00D9FF"/>
<stop offset="1" stop-color="#E6FBFF"/>
</linearGradient>
<linearGradient id="paint1_linear_187_905" x1="27.5" y1="17.0993" x2="27.5" y2="26.1218" gradientUnits="userSpaceOnUse">
<stop stop-color="#0900FF"/>
<stop offset="1" stop-color="#E6FBFF"/>
</linearGradient>
<linearGradient id="paint2_linear_187_905" x1="13.7569" y1="32.1025" x2="13.7569" y2="46.4774" gradientUnits="userSpaceOnUse">
<stop stop-color="#0900FF"/>
<stop offset="1" stop-color="#E6FBFF"/>
</linearGradient>
<linearGradient id="paint3_linear_187_905" x1="134" y1="17.25" x2="134" y2="49.75" gradientUnits="userSpaceOnUse">
<stop stop-color="#00D9FF"/>
<stop offset="0.875" stop-color="#E6FBFF"/>
</linearGradient>
<linearGradient id="paint4_linear_187_905" x1="134" y1="18.25" x2="135.5" y2="23.25" gradientUnits="userSpaceOnUse">
<stop stop-color="#0900FF"/>
<stop offset="1" stop-color="#E6FBFF"/>
</linearGradient>
</defs>
</svg>
